<?xml version="1.0" standalone="no"?>
<!DOCTYPE svg PUBLIC "-//W3C//DTD SVG 20010904//EN"
 "http://www.w3.org/TR/2001/REC-SVG-20010904/DTD/svg10.dtd">
<svg version="1.0" xmlns="http://www.w3.org/2000/svg"
 width="6001.000000pt" height="4001.000000pt" viewBox="0 0 6001.000000 4001.000000"
 preserveAspectRatio="xMidYMid meet">

<g transform="translate(0.000000,4001.000000) scale(0.100000,-0.100000)"
fill="#000000" stroke="none">
<path d="M32435 28653 c-88 -2 -875 -7 -1750 -13 -1483 -8 -1707 -13 -1733
-35 -7 -6 51 -85 62 -86 6 -1 103 -3 216 -4 113 -2 239 -8 280 -14 113 -16
243 -13 730 14 829 45 918 47 2160 46 657 -1 1211 -4 1230 -7 45 -8 63 -18
108 -58 l37 -32 170 8 c123 6 198 15 270 32 171 42 213 47 470 56 248 10 299
15 344 39 35 19 15 30 -84 42 -86 10 -2120 20 -2510 12z"/>
<path d="M21190 28539 c0 -5 39 -9 87 -9 47 0 84 2 82 4 -10 8 -169 13 -169 5z"/>
<path d="M32350 28505 c-8 -2 -50 -9 -92 -16 -43 -6 -78 -16 -78 -22 0 -11
573 -2 655 11 45 7 37 8 -70 15 -171 10 -397 17 -415 12z"/>
<path d="M22280 28424 c0 -4 7 -15 16 -25 9 -10 14 -25 11 -34 -6 -13 -91 -15
-754 -15 -1787 -1 -2916 -52 -2891 -133 7 -19 101 -47 241 -70 119 -19 128
-22 134 -45 15 -62 -21 -72 -339 -102 -272 -25 -369 -37 -381 -49 -13 -13 63
-21 361 -35 150 -7 275 -16 278 -18 5 -6 -162 -42 -297 -64 -62 -11 -227 -19
-489 -26 -417 -11 -456 -11 -1135 -6 -440 3 -495 1 -915 -43 -249 -25 -276
-30 -257 -40 60 -34 1131 -57 1921 -40 325 6 674 17 776 22 280 16 1060 13
1565 -5 1133 -42 2441 -35 2665 15 46 10 110 45 110 59 0 16 -68 31 -205 46
-197 20 -255 39 -255 83 0 4 126 16 280 26 155 10 277 22 273 26 -16 14 -151
57 -245 78 -209 45 -388 64 -807 86 -156 8 -286 17 -289 20 -3 3 6 5 19 5 37
0 699 49 819 60 142 14 240 30 269 45 l23 12 -28 20 c-16 11 -81 49 -144 84
l-115 64 -107 3 c-60 2 -108 0 -108 -4z m-1030 -294 c11 -7 6 -10 -20 -10 -19
0 -42 5 -50 10 -11 7 -6 10 20 10 19 0 42 -5 50 -10z m-867 -242 c-21 -7 -44
-7 -70 0 -36 9 -34 10 32 10 62 0 66 -1 38 -10z"/>
<path d="M22855 28420 c7 -12 82 -12 110 0 14 6 -1 9 -48 9 -43 1 -66 -3 -62
-9z"/>
<path d="M31605 28259 c-523 -19 -467 -25 360 -33 803 -9 1693 -3 1816 11 61
8 58 8 -66 15 -224 11 -1858 17 -2110 7z"/>
<path d="M31103 28223 c9 -2 23 -2 30 0 6 3 -1 5 -18 5 -16 0 -22 -2 -12 -5z"/>
<path d="M29045 28190 c4 -6 71 -10 173 -9 118 1 154 4 122 10 -67 11 -302 11
-295 -1z"/>
<path d="M35376 28181 c-9 -14 61 -33 104 -29 23 2 35 8 35 18 0 12 -15 16
-67 18 -36 2 -69 -2 -72 -7z"/>
<path d="M15430 27899 c-1087 -36 -2061 -116 -2272 -186 -36 -12 -54 -24 -56
-37 -4 -19 5 -19 314 -13 438 9 619 27 1024 102 l185 35 585 9 c533 9 593 12
679 31 74 16 154 22 365 29 290 10 380 23 241 34 -99 9 -770 6 -1065 -4z"/>
<path d="M33015 27804 c-287 -12 -500 -32 -465 -44 3 -1 165 -6 360 -10 330
-7 364 -10 485 -35 95 -19 170 -28 280 -31 83 -3 170 -7 195 -10 89 -11 10
-27 -179 -35 -102 -5 -314 -18 -471 -29 -369 -26 -678 -40 -864 -40 -142 0
-296 -16 -417 -44 -46 -11 -60 -11 -81 0 -63 33 -200 45 -608 54 -477 11 -602
16 -770 35 -198 22 -256 37 -297 76 l-34 34 -188 -3 c-125 -2 -229 2 -312 13
-71 9 -203 15 -312 15 -104 0 -334 5 -511 11 -276 10 -365 9 -636 -6 -298 -17
-328 -17 -560 0 -135 9 -378 19 -541 22 -343 7 -331 9 -463 -97 -68 -55 -87
-65 -145 -77 -118 -23 -284 -27 -433 -9 -75 9 -170 16 -210 16 -93 0 -881 -58
-928 -68 -44 -10 -55 -47 -18 -61 13 -5 167 -14 343 -20 957 -35 1293 -61
1361 -106 21 -13 43 -61 33 -69 -2 -1 -61 -17 -130 -35 -70 -17 -198 -60 -285
-95 l-159 -64 -275 -36 c-424 -55 -501 -60 -935 -60 l-400 -1 -245 42 c-467
81 -747 107 -1085 102 l-220 -4 -65 -32 c-36 -18 -90 -46 -119 -62 -30 -16
-82 -34 -115 -40 -34 -5 -243 -12 -466 -15 -223 -3 -459 -11 -525 -17 -164
-17 -342 -16 -453 1 -86 13 -123 12 -500 -14 -593 -40 -871 -55 -1007 -56 -66
0 -162 -7 -214 -15 -235 -38 -354 -47 -736 -54 -370 -7 -392 -8 -437 -28 -27
-12 -48 -26 -48 -31 0 -11 218 -19 725 -28 209 -4 391 -10 405 -14 22 -6 19
-9 -33 -28 -182 -69 -675 -86 -1026 -36 -116 16 -121 16 -225 -5 -244 -49
-338 -55 -856 -53 l-485 2 -135 -29 c-260 -57 -383 -65 -1195 -82 l-590 -12
-103 -33 c-104 -34 -171 -70 -155 -84 23 -21 141 -29 295 -20 88 6 163 8 168
5 4 -3 109 -9 231 -15 223 -9 312 -23 330 -52 17 -25 9 -74 -13 -95 -70 -64
-404 -107 -554 -72 -67 15 -267 15 -395 -1 -94 -11 -113 -11 -172 4 -58 15
-102 16 -330 10 -245 -6 -270 -5 -382 16 -160 30 -301 24 -472 -19 -221 -56
-480 -95 -818 -122 -90 -8 -647 -14 -1550 -19 -1171 -6 -1423 -10 -1487 -22
-43 -8 -79 -16 -81 -19 -31 -40 -87 -136 -87 -149 0 -23 37 -37 130 -52 55 -8
1019 -13 3580 -19 1928 -4 3540 -11 3582 -16 177 -19 92 -70 -172 -103 -272
-33 -732 -34 -1350 -2 -412 22 -2091 22 -2281 1 -81 -9 -249 -11 -584 -9 -562
4 -510 4 -1645 -7 -894 -9 -960 -12 -960 -42 0 -4 6 -14 14 -20 25 -21 422
-33 1151 -35 619 -2 731 -5 796 -18 79 -17 161 -48 144 -54 -5 -2 -73 -10
-150 -18 -118 -13 -437 -75 -450 -88 -3 -2 43 -21 101 -42 101 -37 104 -39 88
-57 -9 -10 -40 -26 -68 -34 -28 -8 -83 -23 -122 -35 l-71 -20 -7 -59 -7 -58
-71 -7 c-39 -4 -173 -4 -299 0 -132 4 -389 2 -611 -5 -211 -7 -743 -16 -1183
-22 -440 -5 -883 -14 -985 -19 -102 -6 -378 -16 -615 -24 -411 -13 -485 -20
-485 -46 0 -4 19 -16 42 -26 37 -17 67 -19 238 -19 107 0 332 6 500 14 295 14
679 11 1003 -5 l127 -7 0 -42 0 -43 208 -5 c153 -3 233 -10 307 -25 112 -23
249 -35 631 -57 345 -20 425 -19 1199 10 838 32 869 32 970 2 43 -13 74 -26
69 -29 -5 -3 -40 -15 -79 -26 -90 -26 -234 -48 -460 -68 -99 -9 -186 -20 -194
-24 -8 -4 30 -13 90 -20 124 -15 351 -9 522 15 117 17 120 17 325 -9 469 -59
803 -73 1317 -57 1049 33 1164 34 1530 22 198 -6 404 -14 458 -18 l97 -6 0
-28 c0 -31 1 -31 118 -44 61 -7 102 -23 102 -40 0 -30 -1357 -27 -2950 5 -908
19 -1696 23 -1840 11 -184 -16 -830 -25 -965 -13 -104 9 -117 13 -225 64
l-115 55 60 14 c44 10 128 13 312 11 248 -2 374 7 416 30 21 11 21 11 -3 21
-14 5 -146 13 -295 18 -156 5 -311 15 -367 24 -84 14 -132 15 -351 5 -311 -13
-527 -38 -527 -61 0 -13 47 -34 132 -59 84 -25 118 -49 95 -68 -20 -17 -119
-39 -227 -53 -141 -17 -983 -23 -1480 -10 -920 23 -1756 34 -1915 25 l-160 -9
250 -24 c577 -54 510 -52 1920 -60 737 -5 1383 -12 1435 -16 158 -11 197 -29
153 -67 -28 -24 -261 -29 -2013 -37 -1634 -9 -1670 -9 -1670 -42 0 -14 37 -18
240 -29 528 -26 885 -33 1140 -21 140 7 622 14 1070 18 819 5 1064 -1 1124
-28 27 -13 28 -15 22 -66 -3 -28 -2 -54 3 -58 5 -3 90 -19 188 -35 288 -49
372 -84 178 -75 -377 18 -1077 24 -1561 14 -286 -7 -627 -12 -759 -12 l-240
-1 -160 42 c-222 59 -388 69 -845 53 -365 -13 -410 -17 -410 -36 0 -17 23 -25
71 -25 52 0 109 -24 110 -47 1 -10 2 -25 3 -33 3 -42 211 -56 1011 -70 636
-11 1071 -25 1098 -36 18 -7 23 -29 8 -38 -4 -3 -93 -12 -197 -21 -199 -17
-325 -37 -384 -61 l-35 -15 25 -14 c91 -52 274 -72 751 -85 226 -6 435 -17
529 -27 134 -16 245 -18 817 -17 l663 1 57 45 c230 181 466 272 768 299 182
16 519 6 649 -21 282 -56 504 -173 715 -375 236 -226 373 -478 427 -785 18
-98 19 -177 19 -1130 l0 -1025 -482 -3 -483 -2 0 631 0 631 -423 -5 c-472 -5
-471 -5 48 26 l370 22 3 310 c2 198 -1 335 -9 378 -32 196 -191 354 -389 387
-94 16 -355 8 -450 -14 -138 -31 -265 -143 -322 -284 l-23 -57 -3 -2930 c-2
-2155 0 -2946 8 -2990 16 -80 48 -155 68 -155 9 0 32 -15 52 -34 67 -66 242
-103 437 -93 155 7 177 30 107 107 -20 22 -34 44 -29 48 9 9 288 8 411 -2 l92
-7 22 63 c20 56 23 88 27 276 l5 212 -28 1 c-29 1 -29 1 -4 8 l25 7 3 782 2
782 486 0 485 0 -4 -1037 c-4 -1140 -2 -1092 -67 -1303 -66 -214 -173 -384
-360 -570 -222 -223 -428 -336 -730 -401 -96 -21 -131 -23 -405 -23 -243 -1
-317 3 -390 17 -278 53 -515 173 -711 360 l-92 88 -222 -21 c-510 -48 -569
-88 -379 -264 40 -36 69 -70 65 -74 -15 -14 -775 -5 -1051 12 -423 27 -1054
32 -1460 12 -269 -13 -368 -15 -473 -6 -151 12 -219 4 -309 -35 -51 -23 -54
-26 -51 -57 3 -30 7 -34 53 -45 29 -8 217 -19 450 -28 617 -23 625 -23 625
-47 0 -13 -14 -26 -47 -41 -46 -21 -57 -22 -293 -17 -651 12 -720 7 -728 -46
-7 -51 176 -85 573 -104 225 -11 353 -28 442 -60 31 -11 58 -22 60 -24 3 -3
25 -125 49 -273 24 -147 46 -278 49 -289 3 -13 31 -37 72 -62 80 -47 106 -74
122 -124 17 -51 46 -85 106 -124 147 -93 336 -103 423 -21 26 24 62 88 62 110
0 8 8 24 18 36 14 19 37 24 151 37 131 15 137 17 221 65 l87 50 94 -7 c73 -4
104 -2 137 10 42 15 107 25 386 61 65 8 121 17 124 20 9 9 -33 59 -60 72 -14
7 -61 18 -104 24 -44 6 -90 16 -103 22 -53 26 -33 34 121 45 287 22 373 24
498 13 147 -13 425 -58 459 -74 13 -7 29 -28 36 -50 7 -20 19 -44 26 -53 23
-28 86 -53 170 -68 68 -12 108 -30 95 -43 -2 -2 -93 -10 -202 -18 -265 -20
-324 -31 -324 -60 0 -34 28 -38 243 -37 117 1 228 -2 247 -6 45 -10 50 -38 15
-80 -14 -17 -22 -33 -17 -36 16 -10 165 -55 232 -70 36 -8 124 -22 195 -31 72
-9 148 -20 170 -25 77 -18 305 -4 305 19 0 24 -38 47 -121 75 -52 17 -93 35
-92 41 1 5 62 22 135 37 131 27 133 28 173 71 34 37 50 45 102 56 132 28 219
7 372 -89 81 -50 152 -77 243 -91 112 -17 191 -6 679 95 119 24 292 56 384 71
l168 26 91 -35 c83 -32 120 -38 426 -76 184 -22 349 -44 365 -48 90 -24 -31
-72 -271 -107 -151 -23 -204 -36 -204 -52 0 -3 18 -25 40 -49 22 -24 40 -50
40 -59 0 -8 -17 -23 -37 -34 -21 -10 -46 -28 -57 -40 -16 -18 -17 -24 -6 -51
18 -44 67 -65 217 -96 116 -24 141 -25 263 -19 74 3 235 9 357 13 122 4 224
10 228 13 14 15 -49 49 -89 49 -81 1 -160 57 -186 134 -10 32 -13 34 -81 44
-65 10 -99 24 -99 42 0 4 33 17 73 29 125 38 604 74 997 75 286 1 341 -2 460
-21 112 -17 151 -20 230 -13 93 9 215 4 502 -21 118 -11 150 -10 240 4 170 28
297 37 648 47 516 15 755 38 1395 131 648 95 900 116 1235 104 118 -4 244 -10
280 -14 71 -8 74 -6 -60 -37 -87 -20 -114 -38 -100 -65 6 -11 21 -24 33 -29
58 -25 586 -75 1161 -110 392 -24 416 -22 566 53 81 40 85 44 100 90 9 27 22
52 30 57 51 27 633 64 865 55 334 -13 415 -27 415 -71 0 -15 -18 -19 -188 -39
-67 -8 -132 -20 -144 -26 -20 -11 -20 -12 -4 -21 10 -6 51 -18 92 -28 74 -17
114 -41 114 -66 0 -17 -14 -20 -185 -39 -209 -23 -202 -19 -110 -72 72 -42 77
-47 60 -59 -54 -39 -172 -44 -384 -14 -79 11 -191 23 -250 26 -106 7 -109 6
-215 -30 -101 -35 -122 -39 -344 -56 -544 -43 -952 -54 -1452 -40 -152 4 -194
2 -315 -18 -195 -32 -502 -40 -719 -18 -183 18 -567 21 -751 6 -66 -6 -262
-28 -435 -50 -173 -21 -371 -44 -440 -51 -209 -19 -758 -14 -1150 11 -422 28
-782 30 -955 7 -84 -12 -191 -16 -355 -16 -255 1 -369 -8 -645 -47 -230 -33
-254 -47 -134 -78 178 -46 342 -101 429 -145 87 -44 276 -112 440 -158 55 -15
84 -17 185 -11 66 4 248 12 405 18 286 11 439 25 582 56 l77 17 12 53 c7 29
15 58 19 64 12 20 90 29 355 45 137 8 311 20 387 27 118 10 158 9 305 -6 123
-13 318 -20 733 -27 418 -7 594 -14 676 -25 102 -15 139 -15 435 1 178 9 449
19 601 23 l277 8 68 47 c133 91 244 127 393 127 118 0 198 -19 309 -71 l86
-40 350 -1 c266 0 414 5 615 21 146 11 342 25 435 31 94 6 175 16 180 21 7 7
-1 19 -23 37 -65 54 -44 63 150 64 124 0 151 -2 203 -22 33 -12 92 -34 130
-48 l70 -26 445 -1 c245 -1 632 -8 860 -15 470 -14 657 -10 815 20 105 20 141
21 789 20 560 0 682 -3 698 -14 20 -14 20 -15 -4 -30 -58 -37 -136 -41 -1123
-56 -692 -11 -816 -18 -913 -51 -63 -22 -225 -30 -1006 -49 -231 -6 -511 -15
-622 -22 -204 -11 -217 -10 -529 22 -44 5 -147 9 -230 10 -82 1 -206 5 -275 9
l-125 7 -175 -47 -175 -46 70 -12 c109 -17 359 -49 475 -61 58 -6 308 -11 557
-13 407 -2 478 -5 461 -22 -19 -19 -668 -40 -1664 -53 l-540 -7 -53 -46 -53
-47 -317 -8 c-174 -5 -541 -9 -816 -9 -436 0 -521 3 -665 20 -91 11 -219 20
-285 20 -102 0 -129 -4 -183 -24 -67 -25 -73 -39 -26 -55 20 -8 642 -10 1989
-7 1217 2 2233 -1 2680 -8 l720 -12 84 -42 83 -42 277 0 c152 0 368 2 481 4
283 4 854 -4 915 -14 71 -11 82 -18 53 -37 -16 -11 -64 -17 -158 -22 -208 -12
-332 -24 -341 -33 -6 -6 -2 -17 10 -27 16 -15 50 -19 203 -26 111 -5 198 -13
221 -22 38 -14 38 -14 20 -36 -15 -19 -33 -24 -123 -32 -369 -32 -1375 -60
-2880 -80 -893 -12 -2608 -30 -2809 -30 -74 0 -132 -2 -130 -5 3 -2 108 -11
234 -20 271 -18 383 -31 401 -46 8 -6 14 -24 14 -39 l0 -28 -127 -8 c-233 -15
-1866 -11 -2178 6 -334 18 -497 18 -745 1 -116 -8 -575 -16 -1225 -21 -967 -8
-1169 -14 -1395 -40 -47 -6 -200 -15 -340 -20 -1398 -55 -2348 -109 -3010
-170 -302 -28 -506 -56 -715 -96 -453 -86 -909 -168 -1166 -210 -222 -35 -291
-50 -332 -70 -29 -15 -54 -28 -56 -30 -11 -10 36 -58 72 -75 87 -39 237 -23
702 75 505 107 888 174 1015 178 41 1 125 -2 185 -6 l110 -9 105 41 c88 35
134 45 286 67 100 14 204 25 233 25 56 0 143 -18 137 -29 -7 -11 226 -12 364
-1 137 11 237 24 780 104 720 106 1072 132 2000 146 378 6 665 15 765 25 202
18 671 22 4060 35 4741 18 4422 15 5090 61 374 26 803 35 960 21 98 -9 138 -9
220 3 61 9 244 19 470 25 600 15 821 28 1475 90 228 22 507 46 620 55 113 8
228 18 255 20 28 3 430 10 895 15 570 6 913 14 1055 24 211 15 535 29 1070 45
246 8 301 12 363 30 191 55 224 62 357 71 196 13 3764 22 3992 10 100 -6 228
-17 285 -25 125 -19 307 -60 320 -73 14 -14 1 -35 -40 -64 l-37 -26 -1 -100 0
-99 135 -7 c769 -37 2004 -81 2951 -106 212 -5 628 -10 925 -10 297 0 637 -5
755 -10 672 -30 1262 -78 1288 -104 11 -11 -33 -15 -260 -20 -253 -6 -538 -23
-547 -32 -2 -2 3 -14 12 -28 46 -69 554 -99 1687 -99 782 0 862 3 932 39 25
13 29 20 26 52 l-3 37 -90 16 c-63 11 -177 18 -374 22 -269 5 -285 7 -305 26
-13 13 -17 24 -11 30 6 6 170 14 380 19 l370 9 115 39 115 39 325 0 c179 0
347 4 374 9 33 6 75 26 125 60 l75 51 336 5 c184 3 343 9 353 14 90 44 -182
51 -793 22 -786 -38 -1642 -40 -2200 -6 -85 5 -164 10 -174 10 -36 0 21 48 73
60 68 17 966 30 1226 18 257 -12 724 -5 780 12 21 7 54 27 72 45 26 26 33 41
33 73 0 23 -6 45 -15 52 -8 7 -56 15 -108 18 -89 4 -158 25 -141 42 15 13 228
60 342 75 141 19 387 19 542 0 68 -9 257 -38 420 -65 162 -27 376 -58 476 -69
199 -23 273 -43 349 -96 97 -66 140 -75 264 -54 94 16 116 30 144 92 16 36 45
72 90 112 60 54 98 108 85 121 -13 13 -194 24 -388 24 -143 0 -289 -7 -435
-21 -388 -37 -879 -14 -1400 66 -173 27 -351 67 -366 82 -7 7 14 24 58 49 37
21 74 51 82 65 14 25 13 31 -15 85 l-29 59 -117 30 c-64 17 -119 33 -122 36
-3 3 10 20 28 38 37 36 94 56 266 92 287 61 601 66 920 13 117 -19 165 -40
255 -108 66 -51 76 -55 170 -71 162 -28 380 -30 588 -6 226 27 264 26 378 -3
54 -14 141 -27 204 -31 105 -6 119 -5 290 34 195 45 271 67 281 82 8 14 -20
43 -77 80 -27 17 -49 35 -49 39 0 13 81 48 130 55 56 9 100 31 100 50 0 8 -13
36 -29 62 -16 25 -27 52 -24 59 8 21 69 44 160 60 47 8 100 22 116 31 l30 15
-24 19 c-39 31 -129 60 -201 66 -87 7 -196 -10 -330 -53 l-108 -35 0 -43 c0
-54 -18 -70 -90 -85 -53 -11 -60 -10 -184 34 -74 26 -202 60 -300 80 -124 25
-175 40 -190 54 -11 11 -17 23 -14 26 3 3 73 19 155 34 134 26 234 59 248 81
3 5 0 21 -7 35 -11 24 -10 29 7 42 39 29 256 5 550 -62 195 -44 469 -27 538
35 l30 27 -185 7 c-113 4 -224 14 -284 26 -134 25 -369 47 -675 61 -140 7
-258 15 -262 19 -11 10 87 36 208 56 85 14 140 15 365 8 337 -10 393 -8 435
12 30 14 52 41 41 51 -2 2 -39 12 -82 21 -69 14 -170 16 -766 17 -638 0 -689
1 -708 17 -46 40 -11 58 112 58 51 1 138 5 193 10 55 5 300 14 545 20 245 5
486 15 536 20 86 9 224 44 224 56 0 3 -23 27 -51 52 -48 43 -50 47 -33 60 31
23 115 58 174 72 30 7 59 15 63 17 5 3 -9 20 -30 38 l-38 33 25 5 c14 3 95 8
180 11 85 3 175 11 199 17 l44 12 -27 23 c-33 29 -74 40 -196 53 -104 12 -139
20 -342 87 -106 35 -138 50 -138 63 0 9 -21 34 -46 55 -34 29 -43 41 -34 50 8
8 150 13 468 18 385 6 645 18 659 31 4 4 -174 21 -606 57 -496 42 -578 56
-646 112 -27 23 -35 37 -33 57 5 47 48 53 368 52 292 -1 336 3 354 32 28 44
-40 50 -361 32 -215 -11 -323 12 -323 70 l0 25 263 0 c277 0 425 10 572 39 69
13 89 21 85 32 -2 8 -6 42 -8 76 -2 42 -9 66 -21 77 -30 28 -118 37 -456 46
-222 6 -405 18 -560 34 -306 33 -505 44 -967 52 l-388 7 0 -367 0 -366 -485 0
-485 0 0 785 0 785 -290 0 -289 0 -16 30 c-8 16 -15 31 -15 35 0 3 49 5 108 5
60 0 197 3 305 7 l197 6 0 24 0 23 -323 0 c-245 0 -326 3 -335 13 -10 9 -83
13 -277 15 l-265 4 0 -866 0 -866 -482 2 -483 3 -3 1058 -2 1057 -233 0 c-127
0 -262 3 -299 6 l-67 7 -4 -459 c-4 -452 -4 -461 -29 -564 -59 -241 -161 -433
-327 -618 -224 -250 -503 -409 -821 -469 -138 -26 -632 -26 -770 0 -598 112
-1077 600 -1166 1189 -12 84 -14 511 -11 3130 l2 3033 27 105 c69 274 185 476
388 680 223 223 463 349 775 408 133 25 609 24 750 -2 247 -45 483 -155 663
-310 39 -33 63 -46 85 -47 27 0 29 -2 16 -11 -14 -10 -6 -23 62 -101 190 -214
293 -427 340 -695 18 -111 19 -181 19 -2521 l0 -2408 152 -6 c83 -4 218 -7
300 -7 l148 0 0 2853 0 2854 -152 6 c-83 4 -196 7 -251 7 -55 0 -98 2 -96 4 4
5 416 36 469 36 l30 0 2 183 3 182 576 3 576 2 56 -162 c31 -90 59 -176 62
-191 l7 -28 97 8 c201 17 509 8 759 -22 l32 -4 0 180 0 180 -117 -8 c-182 -12
-498 -9 -583 6 -41 8 -109 25 -150 38 -58 19 -107 26 -214 31 -147 7 -169 16
-122 48 23 14 81 17 476 25 393 8 461 7 542 -7 150 -26 474 -29 793 -9 308 20
594 16 775 -9 168 -24 297 -29 400 -17 52 6 187 15 300 21 222 11 303 25 308
52 8 39 -21 41 -588 42 -300 1 -682 -1 -850 -4 -300 -4 -522 8 -536 31 -11 19
8 48 39 58 47 14 168 31 228 31 29 0 147 -12 263 -27 194 -25 240 -27 566 -28
374 0 457 8 503 46 48 41 -4 45 -315 23 -60 -5 -113 -1 -175 10 -114 20 -296
34 -563 41 -364 10 -444 24 -635 113 -198 91 -256 100 -645 103 -247 1 -305
-1 -437 -20 -144 -21 -153 -22 -200 -6 -67 24 -209 30 -371 16 -117 -10 -155
-10 -262 4 -102 14 -288 18 -1030 25 -498 5 -990 14 -1095 20 -373 21 -670 29
-1355 35 -660 7 -706 6 -915 -14 -327 -32 -638 -37 -1035 -17 -256 13 -469 17
-905 14 -444 -2 -579 0 -612 10 -48 14 -54 26 -20 38 12 4 1460 11 3217 14
2306 5 3227 10 3310 18 63 7 177 20 255 29 122 14 300 17 1393 20 937 3 1267
1 1310 -8 71 -14 132 -69 132 -117 0 -37 6 -36 -275 -51 -212 -12 -235 -16
-235 -41 0 -21 16 -35 50 -43 59 -14 1068 -67 1268 -67 207 0 310 73 220 156
-69 64 -143 90 -347 124 l-124 21 -79 65 -79 65 -162 10 c-135 8 -189 7 -327
-8 -206 -22 -213 -22 -790 7 -385 19 -596 23 -1115 24 l-640 1 -42 23 c-77 41
-66 94 26 120 112 33 923 40 1301 11 208 -15 491 -8 593 16 42 10 77 21 77 24
0 4 -30 24 -66 45 -137 80 -131 91 49 99 78 4 205 14 282 23 77 9 212 17 300
17 142 0 177 -4 310 -32 190 -40 370 -67 558 -82 81 -7 147 -15 147 -18 0 -3
-22 -19 -50 -34 -27 -15 -52 -31 -54 -36 -6 -9 175 -51 344 -81 228 -39 398
-53 645 -54 235 0 545 19 545 35 0 4 -28 23 -62 41 -34 18 -85 57 -113 86 -63
67 -164 117 -335 167 -384 113 -504 151 -632 200 -281 110 -326 114 -1268 118
-605 2 -678 0 -804 -17 -127 -17 -161 -18 -415 -7 -152 6 -463 11 -691 11
-398 0 -624 8 -830 31 -123 13 -401 59 -418 68 -25 14 182 21 898 31 388 5
761 12 830 16 l125 8 -70 12 c-41 8 -162 13 -290 13 -342 1 -701 24 -1452 91
-324 29 -492 40 -630 40 -238 0 -380 13 -563 51 -388 81 -280 74 -1095 70
-857 -3 -1123 9 -1645 74 -225 29 -491 49 -537 42 -17 -3 -45 -15 -62 -28 -25
-18 -39 -21 -95 -17 -89 5 -105 23 -35 37 225 45 795 52 4809 57 2016 2 3699
6 3740 8 45 2 91 11 114 22 l39 19 -44 7 c-24 3 -1088 7 -2364 8 -2713 1
-7043 18 -7130 28 l-60 7 45 12 c215 56 676 78 1910 88 388 3 890 10 1115 16
374 9 416 11 478 31 79 25 80 22 -38 93 l-79 47 -246 29 c-447 52 -571 61
-985 70 -225 5 -426 11 -445 14 -19 4 -114 18 -210 32 -96 14 -184 30 -195 36
-11 5 -57 44 -102 86 -45 42 -107 91 -136 109 l-54 33 -384 9 c-418 10 -575
21 -744 52 -77 14 -207 24 -430 33 -307 14 -455 31 -470 56 -4 5 -4 9 -1 9 2
0 35 6 73 14 122 26 273 37 588 46 235 6 328 12 383 25 109 25 82 41 -65 37
-64 -1 -414 16 -777 38 -883 53 -1110 64 -1176 55 -219 -26 -419 -36 -975 -46
-644 -11 -759 -9 -835 14 l-45 14 40 13 c28 9 136 15 350 19 286 6 313 8 355
27 25 12 53 30 63 41 18 20 17 21 -20 29 -21 4 -238 8 -483 9 -395 0 -453 2
-516 18 -70 18 -72 19 -70 49 1 30 -3 34 -84 73 l-84 42 69 39 c39 21 86 53
105 71 20 17 63 42 96 54 155 57 98 85 -196 98 -188 8 -194 10 -245 87 l-35
52 -102 6 c-119 7 -1223 15 -1343 10z m-1173 -316 c-27 -27 -428 -33 -732 -10
-167 12 -42 19 365 21 295 1 376 -2 367 -11z m1908 -358 c-177 -42 -638 -47
-1315 -13 l-150 8 120 5 c196 9 1383 9 1345 0z m81 -235 c46 -8 111 -24 144
-36 83 -30 271 -36 470 -15 514 53 1487 81 2595 73 677 -5 760 -7 803 -22 26
-10 46 -19 45 -21 -10 -9 -412 -34 -555 -34 -114 0 -199 -6 -285 -20 -256 -41
-188 -39 -2151 -70 l-678 -11 -113 -44 c-81 -32 -138 -47 -202 -55 -49 -5
-299 -10 -555 -10 l-466 0 -97 46 c-113 53 -104 53 -296 -7 -68 -22 -161 -44
-205 -50 -44 -5 -146 -26 -226 -46 l-147 -36 -30 -68 c-22 -50 -38 -71 -62
-84 -107 -55 -385 -69 -1220 -61 -837 9 -1504 23 -1705 36 -284 19 -839 61
-842 64 -6 6 110 35 207 53 133 24 384 23 559 -1 124 -18 150 -18 336 -6 192
12 402 11 726 -6 70 -4 138 -4 152 0 34 8 57 32 57 61 0 31 6 31 520 44 234 6
441 14 460 17 l35 7 -56 17 c-46 14 -114 18 -370 23 -489 9 -724 43 -1022 149
-104 37 -115 43 -90 49 80 20 911 49 1433 50 292 1 379 -6 585 -47 111 -22
217 -11 375 38 l105 32 520 7 c708 8 1140 3 1246 -16z m-8381 -54 c23 -7 21
-8 -15 -14 -54 -9 -353 -9 -440 1 l-70 7 60 6 c87 8 436 8 465 0z m2170 -1
c63 -4 -11 -7 -220 -6 -187 0 -272 2 -210 6 150 9 320 9 430 0z m-4428 -147
l93 -47 345 -7 c190 -4 687 -8 1105 -9 714 0 1215 -9 1645 -27 l185 -8 -100
-6 c-199 -13 -1989 -31 -2780 -27 l-810 4 -95 27 c-163 47 -372 119 -365 126
12 12 140 18 412 19 l273 2 92 -47z m5996 -9 l124 -6 -33 -34 c-18 -19 -52
-41 -77 -51 -38 -14 -53 -15 -121 -4 -183 28 -268 33 -656 41 -406 8 -521 18
-496 43 6 6 43 13 83 17 86 7 997 2 1176 -6z m6022 -24 c12 -6 19 -17 17 -23
-6 -18 -549 -17 -600 2 -42 14 -39 27 8 34 58 10 553 -1 575 -13z m1898 -6
c37 -7 63 -41 41 -55 -8 -4 -56 -16 -108 -25 -80 -14 -129 -16 -320 -10 -503
16 -560 21 -650 49 -46 15 -87 29 -89 32 -3 3 15 6 39 6 24 1 91 5 149 9 115
9 885 3 938 -6z m405 -211 c170 -3 303 -10 295 -14 -13 -7 -252 -40 -423 -59
-190 -21 -539 -32 -698 -23 -142 8 -160 11 -179 31 -12 12 -19 25 -14 29 14
14 343 40 526 42 102 0 324 -2 493 -6z m-1513 -11 c0 -4 -80 -16 -177 -25 -98
-10 -243 -29 -322 -43 -93 -15 -184 -24 -255 -24 -106 0 -485 25 -534 36 -22
4 -23 6 -9 27 14 21 21 22 258 27 416 9 1039 10 1039 2z m-12895 -11 c36 -14
-70 -29 -245 -35 -91 -4 -195 -9 -232 -12 -120 -12 -74 23 62 46 59 10 389 11
415 1z m-1347 -51 c58 -6 98 -17 133 -37 51 -27 51 -27 24 -35 -15 -4 -106
-12 -201 -18 -250 -15 -409 0 -402 38 2 9 15 22 29 29 60 29 267 40 417 23z
m-3660 -47 c397 -3 719 -10 717 -14 -13 -20 -219 -29 -755 -33 -322 -3 -612
-9 -645 -13 -79 -10 -571 3 -654 17 -36 6 -74 16 -85 22 -21 12 -21 12 4 19
34 9 547 10 1418 2z m22955 -80 c-72 -2 -194 -2 -270 0 -76 1 -16 3 132 3 149
0 211 -2 138 -3z m745 0 c-21 -2 -55 -2 -75 0 -21 2 -4 4 37 4 41 0 58 -2 38
-4z m-27318 -178 c0 -24 -3 -25 -55 -25 -64 0 -70 12 -17 33 55 23 72 21 72
-8z m-185 -40 c-35 -16 -75 -19 -75 -6 0 12 25 19 70 19 l35 0 -30 -13z m1343
-1 c28 -3 52 -10 52 -16 0 -6 -180 -8 -537 -6 -446 3 -544 6 -571 18 -30 13
22 15 485 13 285 -2 542 -5 571 -9z m23309 -175 l28 -12 -35 -9 c-86 -22
-1560 -21 -1560 2 0 24 102 28 802 29 532 1 745 -2 765 -10z m-21848 -135 c1
-1 0 -7 -4 -13 -11 -19 -125 -10 -125 10 0 15 112 18 129 3z m22486 -45 c345
-32 409 -41 413 -60 4 -24 -44 -38 -168 -50 -129 -13 -282 -5 -505 26 -260 36
-458 47 -822 43 -256 -2 -335 0 -344 10 -11 10 -10 12 1 12 8 1 47 5 85 11 39
6 295 14 570 18 275 4 511 8 525 9 14 1 124 -7 245 -19z m2919 -35 c217 -70
244 -74 541 -84 222 -7 284 -12 349 -29 44 -12 81 -23 84 -26 3 -2 -8 -9 -24
-16 -34 -13 -130 -6 -224 16 -114 27 -358 34 -1118 35 -808 0 -836 2 -830 49
2 20 17 33 71 63 37 20 82 39 100 42 18 2 230 2 472 -1 l439 -5 140 -44z
m-1697 -40 c-3 -3 -12 -4 -19 -1 -8 3 -5 6 6 6 11 1 17 -2 13 -5z m-26412
-107 l1060 -2 105 -35 c57 -19 98 -36 90 -37 -8 -2 -267 -19 -575 -39 -504
-33 -620 -37 -1162 -43 -331 -3 -604 -9 -607 -12 -6 -6 17 -10 190 -29 51 -6
251 -12 445 -14 297 -3 388 -8 564 -28 205 -24 215 -25 415 -11 254 16 894 28
1013 18 73 -6 88 -10 85 -23 -4 -20 -115 -56 -237 -78 -117 -20 -474 -34
-1116 -44 -586 -8 -553 -5 -822 -75 l-142 -36 -373 3 -373 3 -106 43 c-130 52
-221 65 -409 56 -122 -5 -294 6 -309 21 -3 3 9 19 25 36 28 27 43 32 195 58
90 16 209 34 264 41 80 10 104 16 118 33 18 21 18 21 -5 30 -13 5 -117 11
-233 12 -115 2 -224 8 -242 13 -55 17 -153 64 -148 72 10 16 127 39 255 50
299 25 387 28 675 23 165 -2 777 -5 1360 -6z m8253 -233 c69 -19 -19 -24 -418
-24 -280 0 -440 4 -440 10 0 10 129 14 590 18 135 1 255 -1 268 -4z m22687
-235 c66 -10 175 -53 175 -70 0 -15 -138 -24 -345 -23 -223 1 -270 8 -320 48
l-29 24 58 12 c146 30 295 33 461 9z m585 -39 c0 -5 -4 -10 -10 -10 -5 0 -10
5 -10 10 0 6 5 10 10 10 6 0 10 -4 10 -10z m-36753 -156 c-3 -3 -12 -4 -19 -1
-8 3 -5 6 6 6 11 1 17 -2 13 -5z m33286 -140 c81 -4 147 -10 147 -14 0 -4 -12
-15 -26 -25 -56 -36 -353 -47 -1478 -51 -578 -3 -1048 -2 -1045 0 12 12 439
67 594 77 380 23 1384 30 1808 13z m-2994 -22 c81 -16 118 -39 97 -59 -13 -13
-436 -9 -482 5 -48 14 -85 48 -63 57 71 27 308 25 448 -3z m-25129 2 c18 -18
-23 -44 -91 -56 -81 -14 -404 -16 -759 -4 -237 8 -298 7 -444 -9 -171 -18
-267 -16 -321 6 l-30 12 54 25 c29 13 77 28 105 32 82 12 1473 7 1486 -6z
m-1945 -34 c-3 -5 -12 -10 -20 -10 -8 0 -17 5 -20 10 -4 6 5 10 20 10 15 0 24
-4 20 -10z m24708 -220 c39 -1 41 -2 23 -15 -20 -15 -97 -21 -109 -8 -11 10
15 34 30 28 8 -3 33 -5 56 -5z m8652 -154 c22 -8 90 -19 150 -26 120 -12 195
-28 195 -40 0 -15 -145 -35 -250 -34 -109 1 -370 31 -370 44 0 10 88 49 135
59 59 13 95 12 140 -3z m-33370 -31 c160 -14 296 -25 303 -25 7 0 10 -4 7 -10
-4 -6 -142 -10 -380 -10 -368 0 -374 0 -385 21 -31 58 26 61 455 24z m-1628
-17 c70 -10 75 -12 48 -20 -73 -22 -591 -21 -570 1 25 24 394 38 522 19z
m4103 -18 c57 -5 -20 -7 -230 -8 -279 0 -311 1 -280 13 28 12 76 13 230 9 107
-4 233 -10 280 -14z m-4723 -176 c-3 -3 -12 -4 -19 -1 -8 3 -5 6 6 6 11 1 17
-2 13 -5z m36237 -51 c55 -28 16 -36 -182 -37 -149 -1 -192 2 -206 13 -9 8
-13 18 -8 23 26 26 344 27 396 1z m-31244 -237 c219 -40 430 -129 595 -253
293 -218 489 -514 567 -851 l23 -97 3 -3020 c2 -2697 1 -3032 -13 -3128 -20
-140 -56 -260 -111 -376 -24 -51 -44 -95 -44 -96 0 -1 33 -5 73 -7 77 -6 127
-23 127 -44 0 -21 -43 -27 -150 -22 l-98 5 -16 -28 c-58 -98 -244 -289 -373
-382 -160 -114 -344 -195 -546 -239 -92 -20 -131 -22 -402 -22 -247 -1 -317 2
-395 17 -598 113 -1076 600 -1165 1187 -13 81 -15 481 -15 2698 l0 2602 -122
1 c-106 2 -114 3 -63 9 33 4 88 8 122 9 l61 1 5 423 c4 412 4 424 29 527 57
232 141 398 299 587 245 292 585 474 959 513 131 13 550 5 650 -14z m2924 7
c6 -21 81 -282 264 -918 72 -247 268 -929 437 -1515 169 -586 365 -1267 436
-1515 71 -247 132 -458 137 -468 7 -17 125 389 1019 3493 129 448 242 842 252
875 l17 60 562 3 562 2 0 -3604 c0 -2366 3 -3607 10 -3611 5 -3 140 -3 300 1
l290 7 2 3601 3 3601 483 3 482 2 0 -4295 0 -4295 -482 2 -483 3 -3 659 -2
659 -218 -6 c-119 -4 -254 -7 -299 -7 l-83 0 0 -655 0 -655 -482 2 -483 3 -3
668 -2 667 -83 1 -82 2 78 7 c43 4 80 10 83 12 2 3 3 960 2 2127 l-3 2123
-137 -478 c-76 -264 -210 -731 -298 -1039 -89 -308 -228 -794 -310 -1080 -82
-286 -156 -544 -165 -572 l-16 -53 -507 0 -507 0 -27 98 c-15 53 -142 498
-283 987 -141 490 -338 1175 -438 1524 l-182 635 -3 -2817 -2 -2817 -485 0
-485 0 0 4288 c0 2359 3 4292 7 4295 3 4 257 7 564 7 522 0 558 -1 563 -17z
m7237 -638 c120 -357 346 -1030 501 -1495 l283 -845 3 1498 2 1497 485 0 485
0 0 -4295 0 -4295 -485 0 -485 0 0 1275 0 1276 -249 742 c-778 2315 -942 2801
-946 2805 -3 3 -5 -1368 -5 -3046 l0 -3052 -480 0 -480 0 0 4295 0 4295 576
-2 577 -3 218 -650z m4314 630 c294 -54 534 -183 760 -410 265 -264 404 -570
417 -920 l3 -80 -481 -3 -481 -2 -12 73 c-33 205 -189 363 -392 397 -106 18
-408 8 -474 -15 -129 -45 -246 -157 -297 -283 l-23 -57 -3 -2935 c-1 -1944 1
-2953 8 -2990 32 -174 189 -332 368 -369 67 -14 361 -14 433 -1 159 30 297
147 360 305 l24 60 3 1003 3 1002 -241 0 -240 0 0 480 0 480 725 0 726 0 -4
-1517 c-3 -1383 -5 -1526 -21 -1603 -61 -308 -178 -524 -405 -751 -227 -226
-456 -349 -756 -405 -146 -28 -624 -28 -770 0 -201 37 -371 106 -535 215 -106
70 -292 248 -376 361 -120 159 -214 372 -252 574 -16 85 -17 299 -17 3121 0
2882 1 3034 18 3120 48 241 134 429 275 607 255 320 605 518 985 557 142 15
564 6 672 -14z m5454 14 c219 -20 432 -91 607 -200 310 -194 544 -496 638
-821 49 -169 56 -261 56 -707 l0 -411 -485 0 -485 0 0 388 c0 316 -3 399 -15
447 -40 154 -152 273 -311 330 -63 23 -369 33 -470 16 -150 -25 -287 -128
-355 -266 l-34 -70 0 -1320 0 -1320 32 -67 c53 -113 157 -209 271 -251 50 -18
90 -21 327 -28 293 -7 372 -18 535 -70 210 -68 396 -184 565 -354 217 -217
333 -427 397 -718 23 -102 23 -104 23 -1007 0 -1009 3 -957 -71 -1180 -65
-196 -169 -361 -334 -529 -170 -174 -358 -294 -570 -365 -214 -71 -172 -69
-1212 -73 l-938 -4 0 481 0 480 868 0 c946 0 939 0 1046 58 69 37 158 126 191
192 56 110 55 92 55 935 0 838 0 837 -51 938 -30 57 -132 162 -193 196 -86 49
-116 53 -401 61 -285 8 -365 18 -519 67 -200 63 -382 174 -552 335 -241 230
-380 486 -429 793 -13 76 -15 300 -15 1422 0 890 4 1357 11 1408 43 314 197
601 445 834 235 220 512 346 830 380 117 12 413 12 543 0z m3855 -14 c308 -57
562 -197 793 -438 195 -204 311 -430 370 -717 16 -79 17 -268 20 -2672 l3
-2588 23 -1 22 -2 -22 -4 c-23 -4 -23 -5 -23 -213 l0 -208 84 -7 c47 -4 100
-11 118 -15 29 -7 27 -8 -23 -9 -31 -1 -83 -4 -116 -7 l-60 -7 -6 -206 c-7
-231 -22 -335 -72 -485 -70 -214 -171 -373 -355 -557 -253 -253 -524 -384
-873 -420 -163 -17 -555 -6 -677 20 -195 40 -360 109 -519 216 -99 66 -286
247 -367 354 -75 100 -161 263 -199 376 -56 166 -66 247 -72 563 -4 206 -9
294 -17 297 -6 1 -89 17 -184 35 -95 18 -175 36 -178 41 -3 5 76 9 185 9 l191
0 3 2713 3 2712 22 96 c72 316 210 551 449 771 226 208 509 337 808 367 139
15 563 6 669 -14z m-30331 -61 c64 -4 117 -10 117 -14 0 -9 -207 -20 -364 -20
-83 1 -129 5 -146 14 l-25 14 35 6 c93 15 107 15 383 0z m25774 -6600 c249 -8
282 -22 63 -26 -123 -3 -665 15 -615 20 97 10 264 19 287 16 14 -2 134 -6 265
-10z m792 -3 c37 -23 -50 -66 -113 -56 -39 7 -76 29 -76 46 0 14 168 23 189
10z m9166 -1 c17 -4 -59 -8 -170 -7 -112 0 -182 3 -160 7 54 10 292 10 330 0z
m-12127 -17 c-21 -2 -55 -2 -75 0 -21 2 -4 4 37 4 41 0 58 -2 38 -4z m8287
-193 c4 -7 -3 -8 -22 -4 -38 9 -42 14 -10 14 14 0 29 -5 32 -10z m-28986 -326
c44 -9 39 -21 -12 -28 -51 -8 -111 9 -87 24 17 11 55 13 99 4z m-769 -144 c0
-6 -25 -10 -57 -9 -44 1 -52 3 -33 9 36 12 90 12 90 0z m5944 -239 c12 -18
-93 -27 -169 -14 -36 6 -38 7 -15 14 36 10 178 11 184 0z m1351 -251 c4 -6 -5
-10 -19 -10 -14 0 -26 5 -26 10 0 6 9 10 19 10 11 0 23 -4 26 -10z m-9890
-765 c159 -6 303 -29 355 -55 37 -19 68 -56 56 -67 -3 -3 -213 -1 -468 5 -398
8 -469 12 -505 27 -40 16 -61 44 -49 64 3 5 23 12 43 16 51 11 291 22 373 18
36 -1 124 -5 195 -8z m12155 -36 c-56 -10 -414 -9 -495 1 -36 4 60 7 240 7
180 0 282 -3 255 -8z m-11373 -85 c79 -25 80 -27 33 -35 -78 -13 -208 -10
-283 8 -82 18 -80 20 23 32 118 13 175 12 227 -5z m1803 -144 c124 -11 348
-46 387 -61 122 -46 -384 -73 -663 -36 -167 23 -368 76 -351 93 8 8 296 19
407 16 58 -1 157 -7 220 -12z m3465 -10 c4 -6 -8 -10 -30 -10 -22 0 -34 4 -30
10 3 6 17 10 30 10 13 0 27 -4 30 -10z m-6510 -120 l29 -11 -31 -20 c-38 -24
-178 -38 -211 -20 -24 13 -29 36 -10 47 15 10 135 23 168 19 14 -2 38 -9 55
-15z m410 1 c15 -6 10 -9 -23 -15 -48 -7 -78 3 -46 15 24 10 44 10 69 0z
m4775 -127 c0 -2 -9 -4 -20 -4 -11 0 -20 4 -20 9 0 5 9 7 20 4 11 -3 20 -7 20
-9z m-4905 -105 l108 -11 125 -91 c69 -51 127 -97 129 -102 2 -6 -40 -18 -101
-27 -62 -10 -136 -30 -181 -49 l-77 -32 -92 37 c-50 20 -141 64 -201 97 -145
81 -280 149 -295 149 -10 0 -10 3 0 15 6 8 34 16 63 18 122 8 422 6 522 -4z
m15350 -138 c31 -6 13 -9 -80 -15 -172 -10 -357 9 -240 25 54 7 256 1 320 -10z
m-790 -1 c3 -5 -3 -10 -14 -10 -12 0 -21 5 -21 10 0 6 6 10 14 10 8 0 18 -4
21 -10z m-480 -10 c-8 -13 -45 -13 -65 0 -11 7 -3 10 28 10 26 0 41 -4 37 -10z
m24585 -59 c63 -11 153 -31 200 -44 l85 -24 -199 -6 c-510 -18 -713 -1 -733
60 -3 7 28 15 79 22 46 6 97 13 113 15 71 10 345 -4 455 -23z m-7050 -8 c200
-13 298 -15 530 -7 285 9 569 5 1010 -15 129 -6 376 -11 548 -11 247 0 313 -3
310 -12 -5 -15 -68 -18 -1198 -47 -853 -23 -1169 -36 -1252 -51 -53 -10 -98
-44 -98 -75 0 -58 -393 -53 -456 6 -29 27 -26 30 65 59 80 25 115 44 141 77
26 33 23 35 -85 57 -101 22 -108 24 -100 35 7 12 271 5 585 -16z m5845 -22
l40 -18 -32 -16 c-53 -28 -229 -20 -240 11 -11 28 27 42 111 42 56 0 93 -6
121 -19z m-21300 -5 c204 -12 275 -24 275 -43 -1 -19 -20 -35 -56 -46 -53 -15
-4564 -23 -4564 -7 0 20 39 49 82 61 58 16 245 16 583 0 270 -13 758 -11 1025
5 68 4 185 0 330 -11 211 -17 234 -18 370 -2 249 28 282 29 800 42 679 16 895
16 1155 1z m12298 -7 c21 -5 35 -14 32 -18 -10 -16 -75 -22 -117 -10 l-43 12
30 13 c37 16 50 17 98 3z m-9847 -22 c14 -14 -12 -42 -51 -55 -57 -19 -1068
-29 -1318 -13 -214 14 -284 29 -142 31 50 1 349 12 665 25 575 23 831 27 846
12z m-15509 -11 c50 -8 98 -18 106 -23 31 -17 126 -98 127 -107 0 -12 -227 2
-325 21 -85 16 -194 49 -210 65 -7 6 0 18 18 34 25 21 37 24 110 24 45 0 123
-7 174 -14z m5543 -39 c89 -16 160 -41 160 -57 0 -4 -115 -11 -256 -15 -380
-11 -1315 15 -1618 45 -98 10 -115 14 -103 26 13 13 450 21 1072 20 558 -2
663 -5 745 -19z m2730 13 c41 -5 89 -13 105 -17 52 -12 -84 -32 -215 -32 -117
0 -277 21 -250 32 8 3 69 10 135 15 66 5 127 10 135 10 8 1 49 -3 90 -8z
m-1230 -9 c16 -4 20 -10 13 -14 -22 -14 -279 -29 -392 -23 -165 8 -168 26 -6
39 76 7 360 5 385 -2z m500 -11 c0 -5 -13 -10 -29 -10 -17 0 -33 5 -36 10 -4
6 8 10 29 10 20 0 36 -4 36 -10z m25298 -86 c12 -8 22 -21 22 -28 0 -8 -10
-16 -22 -20 -31 -8 -159 -6 -181 3 -17 6 -16 8 5 28 13 12 34 26 48 32 30 12
97 4 128 -15z m-19188 -50 c168 -14 313 -27 323 -30 9 -3 17 -14 17 -24 0 -59
-276 -52 -700 20 -96 16 -200 35 -230 42 l-55 13 85 6 c106 7 179 4 560 -27z
m1252 1 c30 -20 38 -29 27 -35 -12 -7 -193 -28 -389 -45 -68 -6 -231 8 -272
24 -22 9 -22 9 12 24 86 37 331 68 493 62 76 -2 93 -6 129 -30z m9237 24 c117
-11 182 -26 184 -44 5 -28 -123 -37 -581 -42 -446 -5 -564 -1 -546 17 19 19
131 40 267 51 78 6 178 14 222 18 123 12 327 12 454 0z m-7989 -15 c-157 -50
-407 -75 -658 -66 l-133 4 41 30 c22 16 52 33 67 38 16 5 186 8 378 8 317 0
346 -1 305 -14z m13362 4 c-19 -19 -122 -22 -162 -5 -34 15 -33 15 70 16 80 1
101 -2 92 -11z m2298 2 c17 -5 -3 -8 -60 -8 -47 0 -94 3 -105 8 -26 11 130 11
165 0z m-9220 -40 c0 -26 -89 -40 -97 -14 -5 16 59 43 80 32 9 -5 17 -13 17
-18z m6628 -66 c12 -4 22 -10 22 -15 0 -16 -47 -20 -91 -8 l-44 13 40 7 c22 3
42 7 45 7 3 1 15 -1 28 -4z m-10713 -83 c6 -11 -22 -19 -47 -13 -10 2 -18 8
-18 13 0 12 57 12 65 0z m-2535 -61 c0 -5 -11 -10 -25 -10 -14 0 -25 5 -25 10
0 6 11 10 25 10 14 0 25 -4 25 -10z m7794 -16 c10 -26 7 -69 -6 -82 -16 -16
-53 -15 -89 4 -24 12 -29 19 -23 37 9 32 22 45 47 50 46 9 65 6 71 -9z m1351
-20 c131 -13 277 -15 800 -14 1053 4 1415 -8 1790 -56 129 -17 -49 -23 -856
-29 -871 -7 -938 -6 -1509 30 -210 13 -274 14 -445 3 -110 -7 -294 -13 -410
-13 l-210 0 -70 35 -70 34 230 11 c346 17 570 17 750 -1z m7143 -10 c17 -3 32
-9 32 -13 0 -17 -134 -41 -232 -41 -56 0 -168 -5 -248 -11 -144 -10 -505 -22
-630 -21 -71 1 -141 20 -147 39 -2 6 7 19 20 28 20 12 69 18 228 24 224 10
925 6 977 -5z m-11420 1 c-17 -17 -259 -75 -312 -75 -38 0 -163 31 -191 48
-17 9 -8 12 50 13 39 1 138 5 220 9 231 10 239 10 233 5z m2547 -5 l30 -7 -28
-11 c-31 -13 -119 -16 -179 -6 -40 7 -50 19 -20 27 27 7 164 5 197 -3z m7315
1 l55 -6 -40 -7 c-22 -4 -142 -19 -267 -34 -185 -23 -232 -26 -253 -16 -81 37
65 69 320 70 72 0 155 -3 185 -7z m5398 0 c10 -6 8 -10 -10 -14 -34 -10 -78
-8 -78 2 0 18 66 26 88 12z m-13338 -67 c0 -2 -12 -4 -26 -4 -14 0 -23 4 -20
9 6 8 46 4 46 -5z m-6489 -60 c54 -15 110 -56 96 -70 -14 -14 -194 -26 -342
-21 -207 5 -263 25 -172 62 112 45 311 59 418 29z m16054 -8 c66 0 201 4 300
9 188 8 448 -2 790 -31 269 -23 375 -47 383 -87 3 -16 -22 -17 -405 -17 -321
0 -495 5 -818 25 -512 31 -512 31 -525 56 -9 16 -6 22 21 38 26 16 42 18 83
13 28 -4 105 -7 171 -6z m-684 -27 c139 -19 161 -36 87 -69 -90 -39 -200 -35
-297 12 -39 19 -41 22 -25 32 24 13 102 34 130 35 11 1 59 -4 105 -10z m4814
-23 l40 -13 -40 -11 c-51 -15 -162 -15 -204 -1 -25 9 -29 14 -20 25 15 18 167
18 224 0z m-22727 -42 c56 -16 6 -70 -73 -79 -75 -10 -409 2 -610 21 -241 23
-259 46 -49 63 122 10 691 6 732 -5z m16347 -221 c114 -21 182 -27 365 -31
282 -6 265 -20 -40 -33 -227 -10 -295 -5 -444 31 -45 10 -137 22 -205 26 -133
8 -136 17 -12 33 85 12 163 5 336 -26z m3984 18 c18 -12 0 -21 -28 -14 -17 4
-19 8 -9 14 16 11 20 11 37 0z m-2374 -71 c10 -11 16 -22 14 -25 -8 -8 -633
12 -654 21 -18 8 -17 9 10 15 17 4 161 7 321 8 279 1 292 0 309 -19z m300 0
c3 -5 -4 -11 -17 -14 -90 -18 -105 -16 -70 10 20 16 78 18 87 4z m-6274 -33
c47 -8 94 -19 104 -25 16 -9 13 -12 -24 -32 -113 -57 -273 -62 -1163 -30 -751
26 -944 37 -975 54 -26 13 -25 13 23 25 32 8 171 14 399 18 193 3 352 7 355
10 3 2 273 3 600 0 462 -4 614 -8 681 -20z m-3094 -18 l28 -11 -25 -10 c-27
-10 -125 -6 -137 6 -24 23 82 35 134 15z m9186 4 c-7 -2 -21 -2 -30 0 -10 3
-4 5 12 5 17 0 24 -2 18 -5z m-16869 -43 c20 -12 36 -28 36 -35 0 -14 -77 -47
-170 -71 -35 -9 -148 -18 -315 -24 -143 -5 -360 -15 -481 -21 -128 -7 -344
-10 -510 -7 l-289 6 -68 33 c-59 30 -65 35 -45 40 13 4 275 7 583 8 308 1 645
6 750 12 l190 11 55 39 55 39 87 -3 c67 -4 94 -9 122 -27z m-1351 -340 c13
-11 -116 -21 -189 -14 -36 4 -61 10 -57 15 16 16 228 16 246 -1z m1747 -121
c-45 -18 -174 -30 -258 -23 -149 12 -64 32 138 32 105 1 138 -2 120 -9z
m19287 -111 c45 -21 36 -49 -22 -72 -39 -16 -75 -20 -165 -20 -105 -1 -120 1
-170 26 -59 29 -96 55 -89 62 3 3 52 9 109 15 130 12 301 6 337 -11z m-5128
-63 c57 -8 106 -17 108 -19 9 -9 -117 -21 -222 -21 -114 0 -251 13 -241 22 13
13 116 31 181 32 39 0 117 -6 174 -14z m1329 -16 c-12 -7 -24 -7 -35 0 -15 9
-12 10 17 10 29 0 32 -1 18 -10z m-4003 -59 c-3 -5 -15 -10 -25 -10 -10 0 -22
5 -25 10 -4 6 7 10 25 10 18 0 29 -4 25 -10z m6240 0 c4 -6 -8 -10 -29 -10
-20 0 -36 5 -36 10 0 6 13 10 29 10 17 0 33 -4 36 -10z"/>
<path d="M33010 26840 c-11 -7 -5 -10 23 -10 20 0 37 5 37 10 0 13 -40 13 -60
0z"/>
<path d="M31450 26490 c-24 -7 -24 -8 -5 -16 11 -5 52 -9 90 -9 39 0 79 4 90
9 19 8 19 9 -5 16 -14 5 -52 8 -85 8 -33 0 -71 -3 -85 -8z"/>
<path d="M14530 22779 c-115 -19 -242 -105 -310 -211 -66 -102 -71 -139 -68
-509 l3 -326 155 23 c208 30 307 38 386 29 l67 -7 -25 -25 c-14 -13 -56 -36
-94 -51 -65 -25 -81 -26 -281 -30 l-213 -4 0 -2578 c0 -2502 1 -2580 19 -2639
50 -160 195 -289 360 -321 85 -16 371 -13 451 6 119 27 233 110 298 217 67
111 62 -136 60 3128 l-3 2954 -37 77 c-68 142 -199 243 -348 267 -77 13 -342
12 -420 0z"/>
<path d="M38293 22775 c-126 -27 -257 -124 -316 -234 -60 -110 -57 69 -57
-2818 l0 -2643 130 0 c134 0 180 -10 180 -40 0 -9 -10 -26 -23 -38 -21 -20
-34 -22 -155 -22 l-132 0 0 -217 c0 -308 21 -381 142 -502 67 -67 155 -114
242 -130 77 -14 355 -14 432 0 157 29 299 153 356 310 l23 64 3 2910 c2 1897
-1 2933 -7 2975 -29 187 -181 346 -370 386 -86 18 -363 17 -448 -1z"/>
<path d="M41295 27754 c-118 -17 -166 -27 -170 -34 -8 -12 211 -42 310 -43 89
0 293 28 308 42 20 19 -359 48 -448 35z"/>
<path d="M25470 27720 c0 -6 47 -10 123 -10 82 0 117 3 107 10 -20 13 -230 13
-230 0z"/>
<path d="M39558 27713 c7 -3 16 -2 19 1 4 3 -2 6 -13 5 -11 0 -14 -3 -6 -6z"/>
<path d="M40070 27633 c-194 -4 -594 -23 -710 -34 -205 -19 -480 -70 -480 -89
0 -4 44 -36 98 -72 l97 -64 140 7 c77 4 226 13 330 19 209 13 619 10 1120 -10
201 -8 499 -10 845 -7 463 5 553 9 670 26 130 19 294 34 525 46 61 4 175 12
255 20 109 10 324 14 865 13 520 -1 737 2 780 11 328 65 456 104 429 130 -5 6
-4702 10 -4964 4z"/>
<path d="M35430 27613 c-40 -5 -65 -22 -34 -24 34 -3 109 3 118 9 10 6 -21 21
-39 20 -5 -1 -26 -3 -45 -5z"/>
<path d="M11510 27503 c-43 -8 -43 -20 2 -31 36 -8 345 -6 336 3 -5 5 -267 35
-290 34 -13 -1 -34 -4 -48 -6z"/>
<path d="M18061 27430 c-49 -6 -69 -13 -83 -30 -10 -12 -18 -26 -18 -30 0 -24
203 -42 465 -42 244 1 327 11 333 44 9 45 -129 68 -413 66 -121 0 -249 -4
-284 -8z"/>
<path d="M23835 27413 c-11 -3 -62 -18 -114 -34 l-93 -29 -372 0 c-398 0 -539
-9 -681 -41 -87 -21 -127 -22 -1200 -30 -610 -5 -1364 -10 -1675 -12 -311 -1
-573 -7 -583 -11 -25 -12 -17 -37 19 -58 22 -13 69 -21 165 -29 132 -11 288
-9 1634 21 226 5 995 14 1710 21 l1300 12 152 38 c262 66 322 68 688 15 154
-22 182 -23 753 -21 539 1 594 3 609 18 11 11 14 20 8 26 -26 24 -275 42
-1065 76 -316 14 -667 30 -780 35 -210 10 -440 12 -475 3z"/>
<path d="M15885 27295 c-37 -12 -32 -13 90 -14 117 0 128 1 105 14 -31 18
-141 18 -195 0z"/>
<path d="M43210 27263 c-492 -8 -1153 -26 -1305 -35 -103 -6 -932 -13 -1950
-17 -1193 -5 -1780 -11 -1800 -18 l-30 -10 40 -9 c131 -29 5079 12 5203 43 27
6 29 29 3 43 -11 5 -21 9 -23 8 -2 -1 -64 -3 -138 -5z"/>
<path d="M12685 27253 c-292 -6 -782 -25 -880 -34 -60 -5 -162 -23 -225 -39
-141 -36 -269 -55 -510 -75 -539 -45 -680 -62 -720 -87 l-31 -18 38 -42 c21
-22 46 -49 55 -59 39 -41 81 -44 573 -43 521 2 482 -2 725 76 69 22 175 64
237 94 l111 54 439 3 c467 2 473 2 473 -44 0 -38 40 -42 490 -49 397 -7 553
-17 613 -39 50 -19 -290 -55 -653 -71 -387 -17 -505 -28 -585 -56 -113 -40
-150 -64 -150 -99 l0 -30 450 0 c473 0 560 5 836 51 210 34 295 42 556 54 227
9 233 10 289 39 l57 29 -77 42 c-42 23 -78 45 -81 50 -2 4 35 24 84 44 96 40
130 60 119 72 -14 13 -172 23 -394 23 -121 1 -283 4 -358 8 l-137 6 -19 36
c-11 20 -23 41 -27 48 -11 16 -297 40 -628 53 -230 9 -378 10 -670 3z"/>
<path d="M15725 27139 c-94 -10 -137 -22 -161 -46 -22 -22 -17 -29 37 -52 50
-22 51 -22 472 -13 337 7 429 12 457 24 35 14 32 15 -195 52 -252 42 -443 53
-610 35z"/>
<path d="M20295 27104 c-343 -8 -826 -25 -875 -31 l-55 -6 40 -14 c63 -22
1762 -24 1890 -3 l90 16 -106 17 c-82 13 -191 18 -480 20 -206 3 -432 3 -504
1z"/>
<path d="M42258 27003 c6 -2 18 -2 25 0 6 3 1 5 -13 5 -14 0 -19 -2 -12 -5z"/>
<path d="M15955 26900 c-72 -7 -155 -34 -155 -50 0 -35 282 -53 740 -48 166 2
292 8 302 14 13 7 -47 20 -235 49 -267 41 -478 52 -652 35z"/>
<path d="M42100 26800 c-228 -4 -480 -8 -560 -9 -80 -2 -140 -4 -135 -7 17 -6
592 -73 720 -83 75 -6 278 -6 540 0 231 5 601 8 822 8 360 -2 405 0 428 15 29
19 31 29 10 46 -30 25 -1077 42 -1825 30z"/>
<path d="M11053 26793 c-35 -7 -27 -32 14 -50 28 -11 60 -14 123 -10 127 7
205 40 138 59 -25 7 -240 8 -275 1z"/>
<path d="M17500 26781 c0 -14 46 -19 118 -13 50 4 61 7 42 13 -36 10 -160 11
-160 0z"/>
<path d="M10693 26673 c-29 -2 -53 -8 -53 -12 0 -13 114 -23 141 -12 l24 9
-28 11 c-16 6 -29 10 -30 9 -1 -1 -26 -3 -54 -5z"/>
<path d="M9425 26540 c-38 -10 -133 -42 -210 -71 l-140 -54 80 -6 c44 -4 166
-12 270 -19 105 -6 227 -18 271 -26 78 -13 84 -13 150 9 l68 24 -78 64 c-116
96 -124 99 -241 98 -64 0 -125 -7 -170 -19z"/>
<path d="M7881 26320 c-47 -20 -7 -35 94 -35 90 0 131 12 111 32 -12 12 -178
14 -205 3z"/>
<path d="M13535 26270 c-71 -4 -143 -11 -160 -16 l-30 -8 40 -7 c22 -5 80 -8
128 -8 75 -1 95 3 135 24 26 14 40 24 32 23 -8 -1 -73 -4 -145 -8z"/>
<path d="M5128 26061 c-53 -11 -119 -42 -112 -53 18 -29 153 -40 220 -18 38
13 62 46 45 63 -13 13 -105 18 -153 8z"/>
<path d="M43005 25840 c25 -11 219 -11 260 0 18 5 -33 8 -125 8 -95 0 -147 -3
-135 -8z"/>
<path d="M6115 25567 l-50 -23 34 -12 c51 -18 105 -15 124 6 21 23 21 38 1 46
-28 11 -58 6 -109 -17z"/>
<path d="M6707 25545 c-27 -7 -52 -17 -55 -20 -9 -10 275 1 308 11 l25 8 -30
7 c-51 11 -198 8 -248 -6z"/>
<path d="M2975 24812 c-22 -11 -49 -29 -59 -41 -19 -21 -20 -23 -2 -89 29
-110 76 -220 105 -250 18 -17 53 -35 92 -46 l62 -17 41 29 c23 16 56 50 74 77
63 93 34 211 -70 283 -94 65 -179 83 -243 54z"/>
<path d="M48740 24608 c-43 -10 -44 -11 -20 -20 14 -6 73 -13 131 -15 89 -5
111 -3 140 13 l34 18 -25 7 c-37 10 -208 8 -260 -3z"/>
<path d="M50440 24077 c-72 -16 -139 -56 -185 -109 -35 -42 -39 -44 -153 -68
-111 -24 -117 -26 -120 -51 l-3 -26 133 -12 c174 -15 544 -31 733 -30 190 0
252 13 283 59 51 76 25 107 -139 158 -237 75 -439 104 -549 79z m-50 -176 c0
-23 -51 -26 -95 -6 -29 13 -29 13 33 14 34 1 62 -3 62 -8z"/>
<path d="M8105 23989 c-157 -8 -194 -13 -215 -28 -14 -10 -25 -27 -25 -37 0
-18 8 -19 135 -17 144 3 643 30 698 39 35 5 43 27 15 39 -28 12 -396 14 -608
4z"/>
<path d="M47820 23700 c-102 -21 -202 -42 -222 -46 l-38 -7 0 -108 0 -109 178
0 c219 0 772 18 830 26 38 6 42 9 42 34 0 29 -32 63 -124 130 -27 19 -62 45
-79 58 -53 39 -122 54 -267 58 -126 3 -147 1 -320 -36z"/>
<path d="M49800 23669 c-47 -5 -95 -13 -106 -17 l-22 -7 30 -76 29 -77 113
-31 c160 -45 312 -73 711 -131 494 -73 483 -72 560 -65 80 7 145 22 145 34 0
20 -47 46 -142 80 l-102 36 -33 56 -32 56 -208 51 c-228 56 -334 76 -492 92
-120 12 -329 11 -451 -1z m170 -129 c0 -5 -11 -10 -25 -10 -14 0 -25 5 -25 10
0 6 11 10 25 10 14 0 25 -4 25 -10z"/>
<path d="M54017 23674 c-15 -16 -6 -24 27 -24 19 0 38 5 41 10 3 6 0 10 -7 10
-7 0 -22 3 -33 6 -11 3 -24 2 -28 -2z"/>
<path d="M52913 23576 c-21 -10 -33 -22 -33 -35 0 -16 9 -21 48 -27 58 -10
151 -10 215 0 54 8 61 26 20 53 -36 24 -204 30 -250 9z"/>
<path d="M47920 23390 c-210 -5 -217 -6 -288 -35 l-72 -30 2 -240 3 -240 50
-6 50 -6 -52 -1 -53 -2 0 -2350 0 -2350 28 -1 27 -1 -25 -7 -25 -7 -3 -237 -2
-237 177 0 c233 1 716 17 921 31 128 9 165 9 177 -1 8 -7 15 -16 15 -21 0 -25
-209 -55 -480 -69 -118 -6 -244 -15 -280 -21 -133 -21 -257 -26 -322 -13 -35
8 -96 14 -135 14 l-73 0 0 -65 0 -65 48 1 c26 0 85 4 132 9 89 9 283 4 1200
-31 469 -18 617 -20 955 -13 220 5 904 7 1520 5 616 -2 1230 -3 1365 -3 3217
6 3393 7 3505 25 197 31 294 37 705 47 540 14 583 20 285 43 -589 44 -1403 72
-1525 54 -67 -11 -580 -3 -899 13 -191 10 -265 10 -395 -1 -117 -10 -301 -13
-666 -11 -600 5 -881 14 -930 33 l-35 14 60 9 c33 4 753 9 1600 10 1148 1
1558 5 1612 14 84 14 171 45 207 73 14 11 38 26 53 34 17 9 21 15 12 15 -9 0
-86 25 -170 56 l-154 55 -475 11 c-542 11 -2043 4 -2198 -11 -97 -9 -104 -11
-145 -46 l-42 -37 -100 6 c-55 3 -199 9 -319 13 l-220 6 -102 54 c-92 48 -111
54 -196 63 -202 21 -348 7 -493 -48 -44 -17 -90 -33 -101 -36 -12 -4 -134 7
-272 23 -250 30 -250 30 -399 14 -119 -12 -228 -14 -553 -9 -223 3 -452 11
-510 17 -58 6 -173 11 -256 10 -159 -1 -243 10 -373 49 -97 30 -78 40 74 40
167 0 542 17 780 35 309 23 699 35 1170 37 561 2 2121 -18 2390 -31 116 -6
523 -15 905 -21 427 -7 762 -16 870 -25 336 -29 427 -17 619 76 174 84 119 81
2206 119 854 16 1143 39 1153 92 5 25 -43 45 -144 60 -132 19 -1712 18 -2074
-1 -321 -18 -974 -19 -1160 -2 -171 15 -302 32 -295 40 3 3 127 10 275 16 224
9 273 13 286 27 15 14 -1 16 -187 23 -112 4 -1039 5 -2059 3 l-1855 -3 -80 27
c-87 29 -184 50 -310 69 -111 16 -1204 24 -1440 10 -232 -14 -292 -1 -243 52
l23 25 730 11 c1294 20 3704 60 3895 65 102 2 297 -1 433 -7 388 -17 757 12
868 68 42 21 79 54 79 70 0 18 -143 26 -263 15 -148 -13 -276 -15 -504 -5
l-203 8 6 23 c4 16 0 25 -14 33 -47 25 -142 5 -142 -31 0 -16 -10 -18 -100
-18 -87 0 -105 3 -129 21 -28 20 -34 21 -128 10 -54 -6 -170 -15 -258 -20
-245 -14 -985 1 -985 20 0 19 90 59 160 70 53 8 294 12 815 13 525 1 803 5
958 15 180 12 241 13 346 2 l128 -12 129 36 c71 21 132 40 137 44 4 4 2 40 -5
79 -9 53 -16 72 -28 72 -8 0 -161 7 -340 15 -346 16 -536 34 -692 66 -53 10
-100 20 -105 21 -47 9 299 18 1030 27 836 9 1298 21 1742 41 110 5 409 14 665
20 607 13 856 30 875 61 6 9 -19 64 -35 74 -11 7 -135 21 -273 31 -138 9 -111
25 63 35 78 5 146 12 151 15 17 10 9 32 -13 39 -13 4 -783 9 -1713 11 -1137 2
-1728 7 -1805 15 -63 6 -189 26 -280 44 -251 50 -325 57 -725 64 l-370 6 180
23 c99 12 234 27 300 32 179 15 208 27 167 68 -20 20 -19 20 122 27 77 3 209
11 291 16 83 5 911 12 1840 15 930 4 1717 9 1750 13 50 5 60 9 60 25 0 13 -13
24 -40 35 -34 13 -108 16 -470 19 -236 2 -563 -1 -725 -8 -212 -8 -367 -8
-550 0 -413 17 -693 57 -586 84 13 3 59 29 101 57 42 28 93 56 113 61 21 6
435 13 967 18 858 8 1071 13 1118 26 9 3 17 14 17 24 0 15 -17 25 -82 45 -77
24 -103 27 -386 36 -199 7 -408 7 -606 1 -165 -5 -332 -6 -371 -3 l-70 6 90
19 c81 18 154 20 715 27 344 3 639 10 655 13 17 4 52 12 78 18 46 10 48 12 45
42 -4 41 -56 70 -168 92 -74 15 -206 18 -1030 24 -673 5 -977 10 -1056 20
l-111 13 -54 103 c-60 113 -54 109 -187 135 -111 21 -299 -2 -356 -44 -19 -14
-19 -17 -3 -73 15 -53 15 -59 1 -76 -39 -42 -99 -53 -284 -52 -205 1 -303 16
-529 80 -310 88 -449 100 -881 77 -287 -15 -853 -13 -1017 3 -56 6 -61 8 -52
25 5 11 38 27 80 39 75 23 78 27 54 83 -6 15 0 17 56 17 35 0 103 -7 151 -15
141 -23 466 -47 568 -43 102 5 150 21 150 49 0 25 -43 45 -131 62 -65 13 179
15 2041 20 1992 5 2255 8 2331 32 15 5 19 14 17 33 -2 22 -13 31 -60 49 -152
61 -363 80 -721 65 -160 -6 -441 -8 -722 -3 -416 6 -673 4 -1640 -13 -165 -3
-277 -2 -250 2 54 8 269 117 260 132 -8 12 139 19 555 25 386 5 644 14 636 23
-16 15 -154 22 -681 32 l-590 12 -27 26 c-16 14 -28 30 -28 36 0 6 19 30 43
54 l42 44 -170 -6 c-318 -12 -570 -27 -622 -37 -28 -6 -63 -19 -76 -30 -45
-34 -179 -23 -530 45 l-167 33 -133 -28 c-260 -53 -434 -55 -594 -8 -73 22
-78 22 -231 8 -218 -20 -386 -16 -487 10 -44 12 -104 24 -135 27 -30 3 -91 20
-135 36 -192 73 -289 88 -560 88 -264 1 -421 13 -478 38 -46 20 -64 38 -52 50
4 4 187 10 408 13 236 4 437 12 487 19 108 16 454 16 585 1 55 -7 170 -24 255
-38 149 -24 166 -25 434 -19 l278 6 52 29 c28 16 78 36 111 45 110 31 185 58
185 66 0 13 -98 58 -170 77 -55 15 -101 18 -295 16 -202 -2 -238 0 -300 17
-101 28 -204 49 -330 66 -148 20 -205 31 -300 60 -58 18 -118 26 -220 32
l-140 7 200 8 c110 4 448 17 750 28 626 24 691 22 966 -35 260 -54 563 -126
574 -137 5 -5 -62 -9 -179 -9 -293 0 -365 -22 -283 -84 112 -86 248 -114 602
-126 149 -5 344 -14 435 -20 124 -9 318 -9 780 0 338 6 622 13 630 14 8 1 -79
6 -195 9 -563 19 -779 36 -990 78 -115 23 -165 37 -165 48 0 4 13 19 28 34 21
21 50 31 126 46 55 11 104 25 109 30 19 19 -13 58 -67 84 -154 77 -167 80
-351 82 -229 3 -267 12 -805 180 l-265 83 -200 5 c-137 4 -312 19 -555 46
-501 58 -711 55 -886 -10 -66 -25 -81 -47 -59 -88 8 -17 12 -32 7 -34 -4 -3
-38 -8 -77 -12 -107 -10 -275 -42 -357 -69 l-73 -24 -260 29 c-341 37 -506 49
-697 49 -155 0 -159 0 -251 -35 -172 -64 -238 -78 -392 -79 l-140 -1 -73 48
c-156 103 -192 110 -497 97 -240 -10 -582 -1 -741 20 -107 14 -236 40 -254 51
-9 5 212 6 525 3 568 -6 969 4 1040 28 73 24 58 42 -67 83 -148 47 -142 45
-136 50 2 2 80 9 173 14 176 11 373 4 561 -20 95 -12 125 -10 430 19 180 18
330 34 332 37 3 3 0 15 -5 28 -31 67 -156 81 -698 80 -469 -2 -512 2 -645 62
l-75 34 -310 21 c-490 33 -706 51 -733 61 -22 8 -23 12 -11 23 8 8 40 21 72
30 32 9 61 24 64 32 15 40 -70 74 -190 74 -56 0 -146 10 -234 25 l-33 6 41 54
c45 59 47 85 9 96 -28 8 -356 8 -680 -1z m895 -435 c83 -18 167 -44 179 -55
15 -14 -32 -30 -116 -40 -102 -13 -141 -20 -134 -27 2 -3 58 -16 123 -30 120
-25 203 -54 203 -71 0 -6 -19 -18 -42 -27 -61 -25 -194 -29 -499 -16 -216 10
-267 15 -281 28 -30 27 -21 47 37 84 50 31 67 48 48 49 -5 1 -90 9 -191 19
-177 18 -218 29 -195 52 11 11 147 33 298 48 134 14 485 5 570 -14z m-100
-647 c-38 -12 -313 -23 -302 -12 6 6 168 18 302 22 l30 0 -30 -10z m850 -18
c88 -6 316 -10 506 -10 667 0 1248 -12 1242 -26 -8 -21 -67 -26 -423 -34 -190
-5 -373 -13 -408 -19 -34 -7 -115 -35 -180 -63 -145 -63 -198 -78 -284 -78
-64 0 -68 1 -68 23 0 52 -60 96 -160 116 -30 6 -167 16 -305 21 -255 11 -325
17 -325 29 0 3 30 18 68 33 54 22 78 27 122 23 30 -3 127 -10 215 -15z m5190
-210 c14 -5 23 -14 20 -20 -10 -16 -77 -11 -115 10 l-35 19 52 1 c28 0 64 -4
78 -10z m-6521 -40 c78 -32 59 -38 -109 -39 -139 -1 -214 8 -304 36 l-56 17
45 7 c25 4 117 6 205 5 143 -2 166 -5 219 -26z m4052 -1115 c54 -8 144 -15
199 -16 166 -1 224 -38 128 -81 -45 -21 -68 -23 -343 -29 -162 -4 -916 -10
-1675 -14 l-1380 -7 -50 23 -50 23 155 20 c136 17 214 19 645 17 331 -1 582 3
775 14 157 8 488 20 735 26 361 8 626 22 751 38 6 0 55 -6 110 -14z m3829
-794 l40 -8 -46 -7 c-102 -17 -500 -4 -439 15 33 10 394 10 445 0z m-4050
-201 c116 -11 264 -23 330 -27 179 -10 100 -21 -210 -29 -349 -9 -679 17 -644
50 3 4 202 21 284 24 17 1 125 -7 240 -18z m-1093 -22 c-16 -16 -162 -27 -347
-27 -232 2 -298 12 -140 23 61 4 113 8 118 9 27 6 375 1 369 -5z m2957 -114
c2 -2 -67 -3 -155 -2 -111 1 -142 3 -104 8 52 7 250 2 259 -6z m-981 -1 c-43
-2 -113 -2 -155 0 -43 1 -8 3 77 3 85 0 120 -2 78 -3z m135 0 c-7 -2 -21 -2
-30 0 -10 3 -4 5 12 5 17 0 24 -2 18 -5z m1112 -491 c76 -22 -377 -43 -460
-22 -16 4 -23 8 -15 9 8 1 42 9 75 17 65 15 342 12 400 -4z m-2170 -1 c3 -5 1
-12 -3 -15 -14 -8 -142 6 -142 15 0 12 137 11 145 0z m665 -1 c0 -6 -27 -10
-60 -10 -33 0 -60 4 -60 10 0 6 27 10 60 10 33 0 60 -4 60 -10z m1025 -100
l80 -80 -230 0 c-193 0 -234 3 -253 16 -40 28 -26 58 52 110 68 45 68 45 171
40 l99 -5 81 -81z m-905 -60 c10 -7 -7 -9 -55 -8 -69 1 -70 1 -20 8 28 4 52 7
55 8 3 1 12 -3 20 -8z m169 -191 c107 -23 59 -29 -223 -29 -157 0 -286 4 -286
9 0 20 428 38 509 20z m-3269 -337 l45 -7 -85 -19 c-67 -15 -106 -17 -185 -12
-55 4 -116 10 -135 15 -35 8 -35 8 20 14 30 4 71 9 90 10 64 7 205 6 250 -1z
m4663 -229 c-18 -2 -48 -2 -65 0 -18 2 -4 4 32 4 36 0 50 -2 33 -4z m-908
-132 c238 -8 299 -20 199 -39 -112 -22 -267 -25 -697 -13 -238 7 -442 14 -455
17 -29 6 -20 21 21 33 38 11 621 12 932 2z m-4292 -595 c24 -18 21 -31 -8 -44
-49 -22 -115 -8 -115 24 0 30 90 45 123 20z m2802 -35 l30 -13 -38 -14 c-48
-17 -153 -18 -1352 -11 -854 5 -1184 11 -1171 24 2 2 26 11 53 18 72 20 2434
16 2478 -4z"/>
<path d="M45739 23274 c5 -16 116 -346 246 -734 130 -388 318 -949 418 -1247
l182 -543 3 1047 c1 575 0 1048 -2 1050 -2 2 -77 10 -166 19 -90 8 -167 17
-172 20 -27 17 22 24 173 24 l169 0 0 183 0 184 -362 6 c-200 4 -393 10 -430
13 l-67 7 8 -29z"/>
<path d="M5588 23183 c7 -3 16 -2 19 1 4 3 -2 6 -13 5 -11 0 -14 -3 -6 -6z"/>
<path d="M7030 23150 c-80 -5 -165 -13 -190 -17 -44 -9 -43 -9 40 -16 47 -3
216 -11 375 -17 160 -6 369 -20 465 -31 207 -24 646 -36 1397 -40 l513 -3 40
62 40 62 -429 0 c-235 0 -805 2 -1267 4 -461 3 -904 1 -984 -4z"/>
<path d="M50775 23153 c-22 -1 -90 -10 -150 -19 -93 -13 -135 -14 -266 -5 -85
6 -168 9 -185 7 -16 -3 -46 -8 -66 -11 -21 -3 -38 -10 -38 -15 0 -19 118 -69
196 -84 43 -8 196 -36 339 -62 l260 -46 508 4 c279 3 510 8 514 12 9 9 -27 39
-77 65 -19 10 -141 46 -270 79 -220 57 -246 62 -407 72 -164 9 -269 11 -358 3z"/>
<path d="M53744 23128 c-70 -43 -115 -61 -228 -89 -69 -17 -124 -35 -121 -39
9 -15 99 -40 185 -52 97 -13 220 -4 220 16 0 23 35 46 110 71 87 29 100 40 80
59 -38 35 -207 58 -246 34z"/>
<path d="M42041 22779 c-171 -29 -331 -180 -370 -350 -7 -29 -11 -856 -11
-2425 l0 -2381 78 -6 c148 -10 572 0 682 17 63 9 170 16 268 16 l162 0 0 2368
c0 1559 -4 2382 -11 2411 -40 173 -200 321 -379 350 -77 13 -342 12 -419 0z"/>
<path d="M8452 22679 c-30 -27 -218 -59 -352 -59 -87 0 -127 -16 -225 -85
l-65 -47 0 -59 c0 -56 -1 -59 -27 -65 -68 -14 -197 -60 -200 -70 -2 -6 6 -14
19 -18 13 -3 320 -6 683 -6 696 -1 904 -8 1023 -37 l72 -18 29 -60 28 -60 6
205 c5 177 19 298 42 369 4 15 -41 16 -511 16 -283 0 -518 -3 -522 -6z"/>
<path d="M56375 22255 c-55 -7 -98 -13 -95 -14 25 -8 308 -30 392 -31 105 0
264 17 254 28 -31 30 -361 40 -551 17z"/>
<path d="M7995 22006 c-36 -12 -10 -14 250 -14 320 1 312 13 -15 22 -153 5
-204 3 -235 -8z"/>
<path d="M9373 21856 c-112 -121 -138 -127 -558 -136 -270 -6 -401 -14 -632
-39 -160 -17 -419 -40 -575 -51 -301 -22 -332 -27 -391 -64 l-38 -23 59 -17
c47 -13 106 -16 303 -16 289 0 403 9 684 55 116 19 260 38 320 44 169 15 510
26 713 23 l182 -3 0 146 c0 80 -2 145 -4 145 -2 0 -30 -29 -63 -64z"/>
<path d="M6015 21890 c3 -5 31 -10 61 -10 34 0 53 4 49 10 -3 6 -31 10 -61 10
-34 0 -53 -4 -49 -10z"/>
<path d="M55475 21743 c-55 -8 -105 -24 -105 -34 0 -5 15 -24 33 -42 17 -17
31 -35 30 -39 -2 -4 81 -5 185 -1 103 3 374 7 602 7 326 2 421 5 445 15 l30
14 -40 9 c-22 5 -94 9 -160 9 -185 0 -395 16 -559 44 -116 19 -181 25 -290 24
-78 -1 -154 -4 -171 -6z"/>
<path d="M5744 21675 c-34 -7 -150 -37 -258 -66 -179 -48 -195 -54 -181 -69
13 -15 12 -20 -10 -50 -36 -49 -48 -53 -129 -46 -39 3 -408 7 -821 8 -715 2
-752 1 -789 -17 -38 -18 -38 -19 -15 -29 16 -6 327 -11 874 -14 l850 -3 115
-39 c131 -44 209 -55 510 -70 542 -28 1110 -23 1234 11 33 9 37 13 25 25 -10
9 -80 21 -212 35 -108 11 -230 26 -269 34 l-73 13 76 1 c196 3 441 16 414 22
-16 4 -153 7 -303 8 -313 1 -318 3 -242 72 24 22 41 41 38 44 -3 3 -277 45
-295 45 -2 0 -24 19 -49 42 -44 40 -51 43 -123 50 -122 11 -301 8 -367 -7z"/>
<path d="M9360 21520 c-30 -9 -82 -30 -115 -45 l-60 -28 -805 -3 c-797 -4
-955 -8 -945 -24 10 -17 108 -21 528 -25 245 -2 471 -9 518 -15 141 -19 201
-59 185 -123 l-6 -25 -177 -7 c-97 -4 -876 -4 -1732 1 -2184 13 -3024 11
-3141 -4 -113 -15 -208 -46 -252 -82 -36 -30 -33 -42 20 -69 70 -35 142 -44
418 -50 208 -5 275 -9 287 -20 58 -47 -29 -81 -257 -101 -213 -18 -229 -26
-118 -60 65 -19 152 -70 152 -89 0 -14 -112 -59 -190 -75 -88 -19 -375 -31
-1045 -46 -544 -12 -625 -20 -625 -66 0 -33 69 -37 700 -43 454 -5 633 -10
653 -19 15 -6 57 -16 93 -22 54 -9 69 -8 87 5 32 23 59 18 105 -17 l43 -33
-28 -9 c-15 -5 -404 -12 -863 -15 -881 -7 -871 -6 -885 -52 -14 -44 -116 -41
1505 -36 226 1 301 -7 517 -53 l53 -12 -40 -51 -40 -52 53 -22 c128 -56 128
-54 98 -180 -13 -54 -27 -105 -32 -114 -9 -18 -132 -120 -169 -140 -19 -10
-106 -15 -365 -20 -248 -4 -349 -9 -374 -19 -34 -13 -34 -13 -10 -22 13 -5
112 -14 219 -18 697 -32 703 -33 722 -76 6 -13 9 -26 6 -29 -4 -4 -418 -45
-459 -45 -17 0 -69 -105 -69 -138 0 -9 14 -29 31 -43 l31 -25 -132 -39 -132
-39 -83 18 c-93 19 -122 15 -180 -22 -82 -53 -107 -91 -69 -106 9 -3 197 -6
419 -6 444 0 435 -1 435 61 0 42 33 52 145 44 66 -5 103 -14 139 -32 65 -33
212 -70 355 -88 84 -11 121 -21 134 -34 18 -17 16 -18 -70 -30 -216 -28 -350
-33 -882 -32 -737 2 -989 -18 -931 -73 27 -25 84 -37 225 -47 167 -11 256 -25
304 -46 l36 -15 -30 -9 c-16 -4 -167 -12 -335 -18 -168 -5 -318 -13 -333 -18
l-28 -8 20 -27 c12 -15 36 -31 54 -37 99 -33 795 -50 1282 -32 367 14 588 5
754 -29 107 -22 128 -34 86 -50 -72 -27 -234 -31 -579 -13 -423 21 -1056 23
-1324 4 l-192 -14 41 -30 c58 -42 152 -50 559 -47 775 6 941 4 1134 -14 262
-25 396 -64 396 -117 0 -21 -18 -32 -125 -74 -75 -29 -80 -33 -80 -61 0 -29 1
-29 105 -55 117 -28 145 -40 160 -70 10 -17 7 -21 -22 -33 -63 -27 -223 -98
-226 -101 -7 -7 184 -35 306 -45 162 -13 184 -20 180 -56 -3 -29 -8 -33 -85
-65 -45 -18 -75 -50 -61 -64 8 -9 359 -75 518 -99 91 -14 242 -32 335 -40 205
-19 267 -31 290 -55 16 -18 4 -19 -407 -23 -332 -4 -449 -9 -543 -22 -66 -10
-123 -21 -128 -25 -4 -4 5 -19 21 -34 37 -35 75 -42 390 -63 144 -10 262 -22
262 -26 0 -4 -30 -8 -68 -8 -91 0 -227 -18 -269 -35 -52 -22 -46 -55 22 -105
30 -22 55 -47 55 -55 0 -19 -46 -53 -89 -65 -20 -5 -87 -14 -148 -20 -114 -10
-163 -22 -163 -39 0 -24 58 -44 164 -54 167 -16 753 -15 932 2 l152 14 66 -31
c36 -17 66 -35 66 -39 0 -20 -43 -71 -82 -99 -42 -30 -52 -43 -83 -116 -29
-65 -61 -74 -270 -69 -364 9 -391 8 -422 -15 -23 -16 -57 -70 -75 -117 -8 -20
-142 -38 -393 -52 -277 -16 -335 -26 -369 -64 -34 -38 18 -44 469 -52 231 -4
560 -16 730 -28 391 -26 677 -38 1067 -47 223 -5 310 -10 318 -19 11 -13 -219
-25 -499 -25 -80 0 -225 -7 -321 -15 -180 -15 -909 -28 -2375 -40 -777 -7
-1276 -19 -1335 -33 -34 -8 -34 -8 -10 -16 26 -8 297 -18 960 -36 212 -5 396
-12 410 -15 59 -11 486 -26 1045 -35 330 -6 719 -17 865 -25 478 -26 542 -27
1890 -31 734 -2 1407 -7 1495 -11 l160 -8 -55 -18 c-117 -39 -1824 -96 -2870
-97 -362 0 -449 -3 -685 -25 -148 -14 -333 -28 -409 -32 -77 -3 -158 -12 -180
-18 l-41 -13 60 -8 c33 -5 808 -7 1723 -6 1500 3 2584 -7 2644 -24 10 -3 -11
33 -52 88 -86 114 -162 259 -210 398 l-35 105 -60 16 -60 16 58 7 c54 7 58 9
53 30 -23 94 -26 353 -26 2709 0 1999 -3 2507 -12 2506 -7 0 -38 -9 -68 -19z
m-1955 -540 c-11 -5 -36 -9 -56 -9 -66 -2 -96 -18 -106 -59 l-9 -37 -89 -13
c-73 -11 -133 -11 -315 -2 -124 7 -268 14 -320 16 -125 6 -358 32 -443 50 -38
8 -91 14 -119 14 -28 0 -49 2 -47 4 2 2 207 9 454 16 248 7 563 15 700 19 359
11 373 11 350 1z m-1565 -40 c-25 -4 -66 -16 -91 -26 -44 -17 -48 -17 -93 0
-25 10 -46 22 -46 27 0 5 60 8 138 8 99 -1 124 -4 92 -9z m-683 -14 c20 -20
-67 -33 -108 -15 -28 11 -30 14 -13 21 21 9 111 5 121 -6z m164 -108 c22 -6
39 -15 39 -19 0 -4 -26 -13 -57 -19 -60 -13 -129 -8 -165 11 -21 11 -21 12 -3
25 23 17 133 18 186 2z m-482 -7 c18 -12 4 -19 -56 -27 -50 -6 -72 3 -58 26 8
12 95 13 114 1z m1128 -900 l293 -6 26 -27 c50 -49 36 -54 -183 -60 -289 -9
-633 0 -716 17 -99 21 -149 58 -94 69 12 3 31 7 42 9 29 7 299 6 632 -2z m627
-17 c29 -11 17 -24 -23 -24 -38 0 -57 10 -44 24 8 8 46 8 67 0z m686 -39 c10
-12 8 -16 -15 -25 -27 -10 -193 -14 -183 -5 9 10 132 43 159 44 15 1 32 -6 39
-14z m-2631 -521 c32 -7 81 -48 81 -68 0 -8 -106 -23 -312 -45 -172 -18 -324
-35 -338 -37 -18 -4 -42 7 -84 37 -69 50 -64 56 51 65 43 3 155 14 248 25 278
31 305 33 354 23z m937 -49 c17 -13 13 -14 -46 -14 l-65 1 40 13 c53 17 48 17
71 0z m-1236 -445 c195 -26 188 -66 -14 -91 -90 -11 -454 -7 -594 8 l-64 6 6
30 c3 17 9 33 12 36 18 18 533 26 654 11z m2824 -1520 c75 -1 38 -17 -72 -31
-84 -11 -251 -5 -238 8 17 17 119 32 185 28 41 -3 97 -5 125 -5z m-794 -16 c0
-2 -12 -4 -26 -4 -14 0 -23 4 -20 9 6 8 46 4 46 -5z m1965 -65 c91 -18 352
-49 423 -49 21 0 43 -5 49 -11 8 -8 313 -45 518 -61 29 -3 18 -6 -40 -11 -110
-10 -272 -41 -320 -62 l-40 -17 82 -42 c52 -26 80 -45 75 -52 -4 -7 -64 -17
-137 -23 -142 -12 -300 -51 -320 -77 -11 -16 -42 -17 -362 -12 -193 3 -357 2
-364 -3 -12 -7 -11 -11 1 -22 17 -16 357 -67 645 -96 96 -10 177 -20 180 -23
3 -3 -4 -13 -16 -24 -20 -18 -38 -19 -238 -18 -184 0 -232 4 -321 23 -141 30
-236 62 -355 121 -87 42 -124 54 -280 85 -209 43 -378 55 -487 35 -38 -6 -72
-18 -74 -24 -10 -26 53 -143 96 -177 23 -19 53 -43 67 -55 l26 -20 -70 -13
c-65 -11 -85 -10 -302 24 -338 52 -317 47 -367 96 -24 23 -42 44 -41 45 2 2
55 8 118 15 141 14 155 22 152 89 -2 42 1 52 24 69 14 12 47 24 74 27 28 4 48
8 46 10 -1 2 -79 15 -172 29 -94 14 -197 34 -230 45 -58 19 -131 57 -124 65 2
1 114 15 249 30 232 25 277 27 835 30 648 4 736 10 824 54 31 15 63 26 71 23
8 -2 56 -12 105 -23z m862 -685 c11 -30 -21 -45 -124 -57 -159 -17 -177 5 -37
47 96 29 152 33 161 10z m-1580 -19 c49 -8 73 -29 54 -48 -17 -17 -177 -16
-218 2 -40 16 -41 25 -5 39 56 22 67 23 169 7z"/>
<path d="M7845 17104 c-163 -38 -384 -62 -764 -82 l-133 -7 18 -22 c18 -21 30
-23 284 -34 314 -14 1084 2 1063 21 -4 4 -72 40 -149 79 -162 81 -164 81 -319
45z"/>
<path d="M58190 21420 c0 -5 11 -10 25 -10 14 0 25 5 25 10 0 6 -11 10 -25 10
-14 0 -25 -4 -25 -10z"/>
<path d="M8590 21250 c0 -13 11 -13 30 0 12 8 11 10 -7 10 -13 0 -23 -4 -23
-10z"/>
<path d="M45390 19448 l0 -1806 48 -4 c26 -2 142 5 257 15 182 17 243 19 460
11 245 -9 252 -9 324 14 40 12 82 20 92 17 11 -4 19 -2 19 2 0 13 -1188 3545
-1195 3551 -3 3 -5 -807 -5 -1800z"/>
<path d="M56486 21035 c-49 -8 -91 -17 -93 -19 -8 -7 69 -25 153 -36 131 -17
304 6 304 39 0 25 -242 36 -364 16z"/>
<path d="M58135 21007 c-57 -42 112 -87 215 -58 l25 7 -30 16 c-40 21 -132 48
-165 48 -14 0 -34 -6 -45 -13z"/>
<path d="M2380 20870 c0 -5 9 -10 20 -10 11 0 20 5 20 10 0 6 -9 10 -20 10
-11 0 -20 -4 -20 -10z"/>
<path d="M1914 20201 c-44 -7 -94 -35 -94 -51 0 -16 48 -23 109 -17 77 8 199
47 180 57 -22 12 -149 19 -195 11z"/>
<path d="M2478 20189 c-29 -16 -21 -26 27 -32 29 -4 62 -1 95 10 27 9 49 17
48 18 -12 9 -156 13 -170 4z"/>
<path d="M55405 19916 c-27 -12 -56 -30 -64 -39 -12 -16 -2 -17 138 -17 83 0
151 3 151 8 0 21 -35 52 -68 62 -58 16 -103 12 -157 -14z"/>
<path d="M55295 19860 c-3 -5 -1 -10 4 -10 6 0 11 5 11 10 0 6 -2 10 -4 10 -3
0 -8 -4 -11 -10z"/>
<path d="M58540 19365 c13 -16 40 -19 77 -9 38 10 15 24 -39 24 -44 0 -49 -2
-38 -15z"/>
<path d="M59390 19130 c0 -5 16 -10 36 -10 21 0 33 4 29 10 -3 6 -19 10 -36
10 -16 0 -29 -4 -29 -10z"/>
<path d="M56788 18773 c6 -2 18 -2 25 0 6 3 1 5 -13 5 -14 0 -19 -2 -12 -5z"/>
<path d="M57197 18477 c-26 -8 -51 -17 -55 -22 -7 -7 399 4 407 11 13 12 -21
16 -156 20 -106 3 -162 0 -196 -9z"/>
<path d="M56880 18446 c0 -8 10 -18 21 -21 26 -9 149 4 149 14 0 9 -74 21
-131 21 -27 0 -39 -4 -39 -14z"/>
<path d="M52955 17910 c3 -5 12 -10 20 -10 8 0 17 5 20 10 4 6 -5 10 -20 10
-15 0 -24 -4 -20 -10z"/>
<path d="M4278 17743 c-41 -10 3 -53 54 -53 42 0 83 34 51 43 -34 10 -88 15
-105 10z"/>
<path d="M41660 17049 c0 -499 1 -542 19 -598 49 -157 179 -277 343 -316 88
-21 375 -20 468 1 119 27 230 107 295 215 58 95 65 141 65 436 l0 263 -62 1
c-35 1 -88 4 -118 8 l-55 6 79 8 c43 4 96 7 118 7 l38 0 0 129 0 129 -197 6
c-109 3 -283 12 -388 19 l-190 12 388 9 387 9 0 87 0 88 -72 6 c-40 3 -308 7
-595 9 l-523 4 0 -538z"/>
<path d="M43820 17473 l0 -73 300 0 300 0 0 73 0 72 -300 1 -300 0 0 -73z"/>
<path d="M45930 17530 l-535 -5 -3 -64 -3 -64 393 7 c308 5 790 20 806 25 1 1
2 26 2 56 l0 55 -62 -2 c-35 -2 -304 -5 -598 -8z"/>
<path d="M3622 17444 c-28 -19 -28 -35 1 -62 32 -30 74 -43 142 -44 71 0 139
16 177 44 71 50 9 78 -169 78 -100 0 -133 -3 -151 -16z"/>
<path d="M45575 17340 l-180 -5 -3 -182 -2 -183 147 0 c197 1 267 11 397 59
l109 41 273 0 274 0 0 140 0 140 -417 -2 c-230 -1 -499 -5 -598 -8z"/>
<path d="M47560 17202 l0 -150 63 -6 c34 -3 125 -10 202 -16 77 -6 196 -22
265 -36 123 -25 132 -26 640 -27 l515 -2 85 26 c194 60 230 61 1520 40 945
-15 2694 -10 2873 8 59 6 162 20 230 31 130 22 529 39 896 40 107 0 192 3 188
6 -6 6 -298 33 -369 34 -35 0 -38 3 -64 60 l-27 60 -516 0 c-1161 0 -3806 33
-6158 75 l-343 7 0 -150z"/>
<path d="M3688 16984 c-3 -3 -381 -6 -840 -8 -836 -2 -878 -4 -878 -36 0 -32
45 -35 545 -39 554 -4 2092 17 2114 29 18 10 -170 38 -334 50 -141 10 -598 14
-607 4z"/>
<path d="M47560 16871 c0 -18 6 -31 17 -36 34 -12 468 -17 674 -7 212 11 279
24 279 56 0 14 -53 16 -485 16 l-485 0 0 -29z"/>
<path d="M49021 16890 c-78 -17 -69 -18 94 -19 127 0 156 2 140 11 -25 15
-176 20 -234 8z"/>
<path d="M47560 16651 l0 -89 43 -6 c152 -20 358 -28 697 -23 206 2 385 7 398
12 12 4 22 16 22 26 0 35 -206 83 -408 93 -62 4 -172 15 -245 26 -126 18 -260
32 -429 44 l-78 6 0 -89z"/>
<path d="M47560 16266 l0 -252 122 -2 c68 -2 201 -9 298 -17 307 -25 739 -41
758 -27 158 112 269 131 600 104 167 -13 579 -15 652 -3 l45 8 -30 12 c-111
46 -250 60 -697 71 -307 8 -405 13 -493 29 -107 19 -251 59 -243 66 2 2 68 14
146 26 153 25 167 33 120 76 -31 29 -75 39 -315 73 -288 41 -486 59 -703 66
-102 4 -202 10 -222 14 l-38 8 0 -252z"/>
<path d="M4105 16353 c-54 -10 -128 -12 -320 -8 -198 5 -348 1 -720 -20 -584
-31 -743 -43 -769 -57 -19 -10 -16 -13 29 -25 57 -14 833 -17 1610 -4 472 8
497 10 511 54 8 25 0 32 -73 56 -72 24 -161 26 -268 4z"/>
<path d="M11310 16200 c-36 -4 -171 -11 -300 -15 -129 -4 -257 -11 -285 -14
l-50 -6 55 -19 c68 -24 389 -35 485 -17 77 14 233 86 173 80 -7 -1 -42 -5 -78
-9z"/>
<path d="M50322 16081 c-11 -7 -11 -9 2 -14 20 -8 48 2 40 14 -7 11 -25 11
-42 0z"/>
<path d="M50636 16081 c-18 -7 -18 -8 -2 -14 23 -9 97 3 90 14 -6 11 -61 11
-88 0z"/>
<path d="M2157 16031 c-17 -6 -17 -8 -4 -19 16 -14 67 -6 67 9 0 5 -4 9 -9 9
-5 0 -15 2 -23 4 -7 3 -21 1 -31 -3z"/>
<path d="M4562 15713 c-30 -6 -18 -23 16 -23 39 0 73 11 66 21 -5 9 -40 10
-82 2z"/>
<path d="M50866 15711 c-8 -13 19 -21 70 -21 44 0 58 12 28 24 -24 9 -92 7
-98 -3z"/>
<path d="M51180 15500 c-120 -23 -183 -46 -214 -79 l-28 -29 68 -8 c123 -13
202 -9 232 13 29 22 43 62 34 96 l-7 24 -85 -17z"/>
<path d="M4550 15353 c-43 -8 -44 -21 -4 -32 51 -14 169 -14 235 0 45 10 50
13 33 22 -20 11 -221 19 -264 10z"/>
<path d="M2870 15321 c-52 -4 -108 -14 -124 -23 -29 -15 -29 -16 -9 -27 12 -6
50 -15 85 -20 130 -17 728 12 705 35 -2 2 -62 11 -133 19 -158 19 -396 26
-524 16z"/>
<path d="M50331 14943 l-64 -15 29 -24 c84 -70 240 -105 369 -84 79 13 107 32
103 73 -3 31 -6 32 -73 49 -90 21 -276 22 -364 1z"/>
<path d="M51412 14463 c-40 -19 -37 -30 15 -66 39 -28 40 -28 76 -11 l37 18
-37 38 c-42 43 -45 44 -91 21z"/>
<path d="M51155 14450 c-3 -5 1 -10 10 -10 9 0 13 5 10 10 -3 6 -8 10 -10 10
-2 0 -7 -4 -10 -10z"/>
<path d="M50380 14406 c-24 -30 -4 -42 95 -55 90 -12 169 -8 179 8 3 4 -50 18
-117 31 -67 12 -127 25 -133 27 -6 2 -17 -3 -24 -11z"/>
<path d="M51652 14270 c-96 -6 -117 -10 -134 -28 l-21 -21 28 -7 c31 -8 262 2
288 12 38 14 6 58 -38 52 -5 0 -61 -4 -123 -8z"/>
<path d="M51863 14129 c-46 -13 -59 -43 -33 -69 31 -31 129 -29 167 4 l28 25
-21 22 c-25 25 -92 34 -141 18z"/>
<path d="M9520 14049 c0 -5 5 -7 10 -4 6 3 10 8 10 11 0 2 -4 4 -10 4 -5 0
-10 -5 -10 -11z"/>
<path d="M50955 13750 c-118 -21 -260 -81 -260 -110 0 -62 313 -67 501 -9 75
23 95 48 65 78 -11 11 -37 25 -58 31 -52 15 -187 21 -248 10z"/>
<path d="M20170 13741 c-23 -7 -21 -8 15 -14 22 -4 72 -6 110 -6 67 1 69 1 40
14 -32 15 -123 18 -165 6z"/>
<path d="M20390 13716 c0 -2 8 -10 18 -17 15 -13 16 -12 3 4 -13 16 -21 21
-21 13z"/>
<path d="M11495 13550 c-16 -4 -70 -26 -120 -50 l-90 -42 -211 7 c-183 7 -218
5 -269 -10 -53 -15 -57 -18 -40 -28 14 -9 144 -12 455 -13 408 -1 537 -7 820
-38 19 -2 77 1 128 7 80 9 107 8 183 -8 83 -16 170 -17 187 0 21 21 -101 74
-283 124 -95 25 -144 32 -359 45 -266 17 -354 18 -401 6z"/>
<path d="M21111 13140 c-24 -5 -46 -11 -48 -14 -11 -10 167 -17 264 -10 104 8
106 8 53 15 -103 14 -225 18 -269 9z"/>
<path d="M19980 13130 c20 -13 70 -13 70 0 0 6 -19 10 -42 10 -32 0 -39 -3
-28 -10z"/>
<path d="M13515 13073 c-344 -22 -801 -93 -1094 -169 -74 -19 -193 -48 -265
-64 -72 -15 -171 -40 -221 -55 -218 -63 -473 -100 -980 -140 -447 -35 -590
-59 -658 -107 -37 -26 -26 -36 53 -49 68 -11 81 -10 410 35 281 38 572 65 810
75 118 6 260 17 315 26 158 26 289 3 401 -70 l51 -33 114 9 c213 18 319 52
401 127 48 45 92 62 224 87 l91 17 -15 59 c-8 33 -12 62 -9 65 2 3 56 17 118
30 185 42 449 133 449 155 0 9 -84 9 -195 2z"/>
<path d="M13985 12889 c-113 -17 -212 -55 -193 -75 16 -15 118 -24 223 -18
125 6 171 18 185 44 20 36 -107 66 -215 49z"/>
<path d="M47985 12891 c-26 -5 -19 -10 65 -38 125 -43 223 -63 345 -70 97 -5
274 10 302 26 18 9 -179 58 -315 77 -98 14 -342 17 -397 5z"/>
<path d="M17873 12883 c15 -2 39 -2 55 0 15 2 2 4 -28 4 -30 0 -43 -2 -27 -4z"/>
<path d="M23665 12706 l-30 -12 49 -13 c37 -9 61 -9 104 0 54 11 55 12 31 25
-30 17 -115 17 -154 0z"/>
<path d="M23160 12701 l-35 -6 47 -14 c34 -10 69 -11 125 -6 76 8 77 8 48 21
-31 14 -124 16 -185 5z"/>
<path d="M25085 12581 c-7 -13 30 -24 55 -16 28 9 15 25 -20 25 -16 0 -31 -4
-35 -9z"/>
<path d="M11850 12520 c-24 -7 -23 -7 12 -14 39 -8 78 -1 78 15 0 11 -54 10
-90 -1z"/>
<path d="M9765 12448 c-130 -11 -288 -38 -570 -98 -126 -26 -250 -51 -275 -55
-25 -4 -61 -17 -81 -30 -38 -25 -49 -55 -49 -142 0 -52 15 -63 115 -91 l70
-19 205 59 c130 38 213 67 227 80 17 16 74 31 227 63 113 23 216 45 231 49 23
6 25 10 25 66 0 59 1 60 40 86 22 15 40 31 40 35 0 11 -67 10 -205 -3z m-435
-228 c20 -5 45 -17 55 -25 19 -15 18 -16 -20 -11 -22 3 -91 8 -153 12 -62 3
-111 9 -108 12 20 19 172 27 226 12z"/>
<path d="M10952 12450 c-18 -4 -36 -10 -39 -13 -12 -13 7 -37 29 -37 40 -1
293 43 303 51 11 11 -247 10 -293 -1z"/>
<path d="M36375 12411 c-38 -10 -88 -36 -104 -54 -10 -13 -6 -17 25 -27 45
-15 121 -15 224 0 54 8 89 7 128 -1 66 -13 102 -6 102 22 0 27 -47 45 -151 58
-93 12 -179 13 -224 2z"/>
<path d="M10350 12374 c-79 -26 -101 -37 -89 -45 8 -5 49 -9 91 -9 68 0 79 3
92 22 8 12 13 25 10 30 -5 8 -79 10 -104 2z"/>
<path d="M47680 12281 l-215 -6 135 -27 c191 -38 274 -48 416 -48 183 0 283
18 284 52 1 30 -220 40 -620 29z"/>
<path d="M47708 11903 c6 -2 18 -2 25 0 6 3 1 5 -13 5 -14 0 -19 -2 -12 -5z"/>
<path d="M12049 11743 c-13 -15 -12 -15 9 -4 23 12 28 21 13 21 -5 0 -15 -7
-22 -17z"/>
<path d="M42425 11729 c-243 -16 -425 -46 -425 -70 0 -13 24 -16 239 -36 l194
-17 -38 -32 c-36 -30 -37 -32 -18 -42 59 -32 316 -48 1208 -77 224 -7 1162
-30 2069 -51 589 -13 783 -14 1012 -5 431 17 737 53 952 111 l83 22 -7 32 c-8
41 -19 53 -68 79 -50 25 -79 26 -431 9 -199 -10 -336 -11 -585 -3 -179 6 -741
17 -1250 25 -1014 17 -1479 29 -1875 51 -279 16 -845 18 -1060 4z"/>
</g>
</svg>
