<svg height="486pt" viewBox="-3 0 486 486.472" width="486pt" xmlns="http://www.w3.org/2000/svg"><path d="m104.234375 336h272v136h-272zm0 0" fill="#d6d9db"/><path d="m200.234375 472h176v-136h-40zm0 0" fill="#ced2d4"/><g fill="#b6b8ba"><path d="m232.234375 368h16v16h-16zm0 0"/><path d="m200.234375 368h16v16h-16zm0 0"/><path d="m168.234375 368h16v16h-16zm0 0"/><path d="m136.234375 368h16v16h-16zm0 0"/><path d="m328.234375 368h16v16h-16zm0 0"/><path d="m296.234375 368h16v16h-16zm0 0"/><path d="m264.234375 368h16v16h-16zm0 0"/><path d="m232.234375 400h16v16h-16zm0 0"/><path d="m200.234375 400h16v16h-16zm0 0"/><path d="m168.234375 400h16v16h-16zm0 0"/><path d="m136.234375 400h16v16h-16zm0 0"/><path d="m328.234375 400h16v16h-16zm0 0"/><path d="m296.234375 400h16v16h-16zm0 0"/><path d="m264.234375 400h16v16h-16zm0 0"/><path d="m136.234375 432h16v16h-16zm0 0"/><path d="m328.234375 432h16v16h-16zm0 0"/><path d="m200.234375 432h80v16h-80zm0 0"/></g><path d="m164.164062 423.238281-27.929687 16.761719v-48c0-8.835938-7.160156-16-16-16-8.835937 0-16 7.164062-16 16 0-8.835938-7.160156-16-16-16-8.835937 0-16 7.164062-16 16 0-8.835938-7.160156-16-16-16-8.835937 0-16 7.164062-16 16 0-8.835938-7.160156-16-16-16-8.835937 0-16 7.164062-16 16v88h128l8-8 35.714844-23.808594c6.640625-4.457031 8.527343-13.394531 4.25-20.15625-4.277344-6.761718-13.160157-8.886718-20.035157-4.796875zm0 0" fill="#fec9a3"/><path d="m456.234375 376c-8.835937 0-16 7.164062-16 16 0-8.835938-7.160156-16-16-16-8.835937 0-16 7.164062-16 16 0-8.835938-7.160156-16-16-16-8.835937 0-16 7.164062-16 16 0-8.835938-7.160156-16-16-16-8.835937 0-16 7.164062-16 16v48l-27.925781-16.761719c-6.875-4.089843-15.757813-1.964843-20.035156 4.796875-4.277344 6.761719-2.394532 15.699219 4.25 20.15625l35.710937 23.808594 8 8h128v-88c0-8.835938-7.160156-16-16-16zm0 0" fill="#fec9a3"/><path d="m80.234375 8h320c13.257813 0 24 10.746094 24 24v208c0 13.253906-10.742187 24-24 24h-320c-13.253906 0-24-10.746094-24-24v-208c0-13.253906 10.746094-24 24-24zm0 0" fill="#87ced9"/><path d="m400.234375 8h-48l-256 256h304c13.257813 0 24-10.746094 24-24v-208c0-13.253906-10.742187-24-24-24zm0 0" fill="#71c4d1"/><path d="m88.234375 40h304v128h-304zm0 0" fill="#a7e1eb"/><path d="m112.234375 64h80v80h-80zm0 0" fill="#5eb3d1"/><path d="m216.234375 64h32v16h-32zm0 0" fill="#5eb3d1"/><path d="m272.234375 64h88v16h-88zm0 0" fill="#5eb3d1"/><path d="m216.234375 96h144v16h-144zm0 0" fill="#5eb3d1"/><path d="m216.234375 128h96v16h-96zm0 0" fill="#5eb3d1"/><path d="m328.234375 128h32v16h-32zm0 0" fill="#5eb3d1"/><path d="m88.234375 200h304v40h-304zm0 0" fill="#a7e1eb"/><path d="m285.570312 304-13.335937-40h-64l-13.335937 40h-26.664063v16h144v-16zm0 0" fill="#d6d9db"/><path d="m104.234375 352h-76c-15.460937 0-28-12.535156-28-28s12.539063-28 28-28h80c6.628906 0 12-5.371094 12-12v-20h16v20c0 15.464844-12.535156 28-28 28h-80c-6.625 0-12 5.371094-12 12s5.375 12 12 12h76zm0 0" fill="#d6d9db"/><path d="m112.234375 240v-16h80v16" fill="#5eb3d1"/><path d="m216.234375 224h88v16h-88zm0 0" fill="#5eb3d1"/><path d="m320.234375 224h40v16h-40zm0 0" fill="#5eb3d1"/><path d="m40.234375 432c-4.417969 0-8-3.582031-8-8v-40c0-4.417969 3.582031-8 8-8s8 3.582031 8 8v40c0 4.417969-3.582031 8-8 8zm0 0" fill="#f0a789"/><path d="m72.234375 432c-4.417969 0-8-3.582031-8-8v-40c0-4.417969 3.582031-8 8-8s8 3.582031 8 8v40c0 4.417969-3.582031 8-8 8zm0 0" fill="#f0a789"/><path d="m104.234375 432c-4.417969 0-8-3.582031-8-8v-40c0-4.417969 3.582031-8 8-8s8 3.582031 8 8v40c0 4.417969-3.582031 8-8 8zm0 0" fill="#f0a789"/><path d="m376.234375 432c-4.417969 0-8-3.582031-8-8v-40c0-4.417969 3.582031-8 8-8s8 3.582031 8 8v40c0 4.417969-3.582031 8-8 8zm0 0" fill="#f0a789"/><path d="m408.234375 432c-4.417969 0-8-3.582031-8-8v-40c0-4.417969 3.582031-8 8-8s8 3.582031 8 8v40c0 4.417969-3.582031 8-8 8zm0 0" fill="#f0a789"/><path d="m440.234375 432c-4.417969 0-8-3.582031-8-8v-40c0-4.417969 3.582031-8 8-8s8 3.582031 8 8v40c0 4.417969-3.582031 8-8 8zm0 0" fill="#f0a789"/><path d="m280.234375 288-8-24h-64l-8 24zm0 0" fill="#c7cacc"/><path d="m120.234375 264h16v16h-16zm0 0" fill="#c7cacc"/><path d="m232.234375 368h16v16h-16zm0 0"/><path d="m200.234375 368h16v16h-16zm0 0"/><path d="m168.234375 368h16v16h-16zm0 0"/><path d="m296.234375 368h16v16h-16zm0 0"/><path d="m264.234375 368h16v16h-16zm0 0"/><path d="m232.234375 400h16v16h-16zm0 0"/><path d="m200.234375 400h16v16h-16zm0 0"/><path d="m264.234375 400h16v16h-16zm0 0"/><path d="m208.234375 432h64v16h-64zm0 0"/><path d="m456.234375 368c-5.90625-.003906-11.605469 2.179688-16 6.128906-9.101563-8.171875-22.894531-8.171875-32 0-6.507813-5.898437-15.746094-7.707031-24-4.695312v-25.433594c0-4.417969-3.582031-8-8-8h-348c-6.625 0-12-5.371094-12-12s5.375-12 12-12h80c13.300781-.027344 24.757813-9.378906 27.449219-22.398438l-15.6875-3.203124c-1.140625 5.589843-6.058594 9.601562-11.761719 9.601562h-80c-15.460937 0-28 12.535156-28 28s12.539063 28 28 28h68v17.433594c-8.25-3.011719-17.488281-1.203125-24 4.695312-9.101563-8.171875-22.894531-8.171875-32 0-7.050781-6.308594-17.148437-7.882812-25.789063-4.023437-8.636718 3.859375-14.203124 12.433593-14.210937 21.894531v88h16v-88c0-4.417969 3.582031-8 8-8s8 3.582031 8 8v32c0 4.417969 3.582031 8 8 8s8-3.582031 8-8v-32c0-4.417969 3.582031-8 8-8s8 3.582031 8 8v32c0 4.417969 3.582031 8 8 8s8-3.582031 8-8v-32c0-4.417969 3.582031-8 8-8s8 3.582031 8 8v32c0 4.417969 3.582031 8 8 8s8-3.582031 8-8v-32c0-4.417969 3.582031-8 8-8s8 3.582031 8 8v48c.003906 2.882812 1.554687 5.542969 4.0625 6.960938 2.507813 1.421874 5.589844 1.378906 8.058594-.105469l27.929687-16.75c2.292969-1.382813 5.1875-1.277344 7.378906.265625 2.191407 1.542968 3.261719 4.234375 2.730469 6.859375-.390625 1.867187-1.535156 3.492187-3.160156 4.488281l-30.613281 22.28125h-.386719v.28125l-12.710937 9.246094 9.425781 12.945312 8.886719-6.472656h180.800781l8.886719 6.472656 9.425781-12.945312-12.714844-9.238282v-.289062h-.390625l-30.878906-22.464844c-3-2.050781-3.84375-6.105468-1.90625-9.183594 1.9375-3.074218 5.960937-4.066406 9.105468-2.246093l27.929688 16.75c2.46875 1.496093 5.558594 1.546875 8.074219.125 2.519531-1.421875 4.074219-4.089844 4.066406-6.980469v-48c0-4.417969 3.582031-8 8-8s8 3.582031 8 8v32c0 4.417969 3.582031 8 8 8s8-3.582031 8-8v-32c0-4.417969 3.582031-8 8-8s8 3.582031 8 8v32c0 4.417969 3.582031 8 8 8s8-3.582031 8-8v-32c0-4.417969 3.582031-8 8-8s8 3.582031 8 8v32c0 4.417969 3.582031 8 8 8s8-3.582031 8-8v-32c0-4.417969 3.582031-8 8-8s8 3.582031 8 8v88h16v-88c0-13.253906-10.742187-24-24-24zm-96 0c-5.921875.019531-11.625 2.246094-16 6.238281v-6.238281h-16v16h9.472656c-.945312 2.5625-1.445312 5.269531-1.472656 8v8h-8v16h8v9.871094l-15.8125-9.488282c-2.515625-1.507812-5.292969-2.515624-8.1875-2.976562v-13.40625h-16v16h1.601563c-8.804688 4.679688-13.472657 14.601562-11.464844 24.367188 1.125 5.824218 4.515625 10.96875 9.425781 14.296874l12.855469 9.335938h-136.800782l12.578126-9.152344c6.667968-4.382812 10.53125-11.960937 10.164062-19.933594-.367188-7.972656-4.914062-15.164062-11.957031-18.914062h1.597656v-16h-16v13.40625c-2.894531.453125-5.671875 1.464844-8.183594 2.976562l-15.816406 9.488282v-9.871094h8v-16h-8v-8c-.023437-2.730469-.523437-5.4375-1.46875-8h9.46875v-16h-16v6.238281c-6.464844-5.976562-15.730469-7.828125-24-4.796875v-17.441406h256v17.433594c-2.5625-.9375-5.269531-1.421875-8-1.433594zm0 0"/><path d="m80.234375 272h116.90625l-10.664063 32h-18.242187v16h144v-16h-18.238281l-10.664063-32h116.902344c17.675781 0 32-14.328125 32-32v-208c0-17.671875-14.324219-32-32-32h-320c-17.671875 0-32 14.328125-32 32v208c0 17.671875 14.328125 32 32 32zm196.898437 32h-73.792968l10.664062-32h52.464844zm-212.898437-272c0-8.835938 7.164063-16 16-16h320c8.839844 0 16 7.164062 16 16v208c0 8.835938-7.160156 16-16 16h-320c-8.835937 0-16-7.164062-16-16zm0 0"/><path d="m88.234375 176h304c4.417969 0 8-3.582031 8-8v-128c0-4.417969-3.582031-8-8-8h-304c-4.417969 0-8 3.582031-8 8v128c0 4.417969 3.582031 8 8 8zm8-128h288v112h-288zm0 0"/><path d="m184.234375 64h-64c-4.417969 0-8 3.582031-8 8v64c0 4.417969 3.582031 8 8 8h64c4.417969 0 8-3.582031 8-8v-64c0-4.417969-3.582031-8-8-8zm-8 64h-48v-48h48zm0 0"/><path d="m216.234375 64h32v16h-32zm0 0"/><path d="m272.234375 64h88v16h-88zm0 0"/><path d="m216.234375 96h144v16h-144zm0 0"/><path d="m216.234375 128h96v16h-96zm0 0"/><path d="m328.234375 128h32v16h-32zm0 0"/><path d="m96.234375 208h288v32h16v-40c0-4.417969-3.582031-8-8-8h-304c-4.417969 0-8 3.582031-8 8v40h16zm0 0"/><path d="m184.234375 224h-64c-4.417969 0-8 3.582031-8 8v8h80v-8c0-4.417969-3.582031-8-8-8zm0 0"/><path d="m216.234375 224h88v16h-88zm0 0"/><path d="m320.234375 224h40v16h-40zm0 0"/></svg>