<svg id="Capa_1" enable-background="new 0 0 510.616 510.616" height="512" viewBox="0 0 510.616 510.616" width="512" xmlns="http://www.w3.org/2000/svg"><g><g><path d="m211.778 109.078h-42.333v83.229l5.583-3.118h.01l60.372-26.318 21.223-33.992-39.725-18.48c-1.57-.871-3.33-1.321-5.13-1.321z" fill="#eb9c8d"/><g><path d="m34.203 390.157-14.705 4.771c-.86 1.14-1.46 2.45-1.77 3.85l-10.15 46.56c-.53 2.4 1.96 4.34 4.16 3.24l43.11-21.62 2.893-13.262z" fill="#fae2c0"/><path d="m175.038 189.188 60.372-26.318 20.427-32.718-5.894-4.387-33.036-15.368c-1.57-.87-3.33-1.32-5.13-1.32h-1.254l-30.239 39.999c-7.034 9.304-10.84 20.649-10.84 32.313v10.916l5.583-3.118h.011z" fill="#d78878"/><path d="m257.578 94.309-13.56 3.619-23.39 30.95-1.609 16.791 20.144 20.144 20.375-7.975.02.02 23.4-30.96 1.248-11.833z" fill="#e5e1e5"/><path d="m259.558 157.858-148.35 196.24-52.91 70c-.91 1.2-2.09 2.18-3.45 2.86l-35.35-32.03 39.16-51.8 161.97-214.25 38.91 28.96z" fill="#fee97d"/><g id="XMLID_536_"><g><path d="m476.038 185.518v135.01l-56.12-2.95h-24.31l-5.38 1.77c-38.24 12.6-79.15 14.81-118.52 6.4l-20.93-4.46-67.56-.01-44.43 29.46c-5.27 3.49-11.23 5.17-17.12 5.17-9.73 0-19.29-4.56-25.33-13.07-3.6-5.06-5.48-10.89-5.71-16.74-.32-8.49 2.83-17.02 9.26-23.35l45.73-44.94 64.01-36.2c2-1.13 3.75-2.66 5.14-4.5l57.509-76.086.011.006 80.44 44.49h67.19z" fill="#eb9c8d"/></g></g><path d="m420.802 285.634h-24.31l-5.38 1.77c-38.24 12.6-79.15 14.81-118.52 6.4l-20.93-4.46-56.521-.008c-7.2-.001-14.24 2.12-20.24 6.099l-35.229 23.359c-5.27 3.49-11.23 5.17-17.12 5.17-9.73 0-19.29-4.56-25.33-13.07-.631-.887-1.19-1.804-1.715-2.734-3.458 5.404-5.114 11.681-4.878 17.938.23 5.85 2.11 11.68 5.71 16.74 6.04 8.51 15.6 13.07 25.33 13.07 5.89 0 11.85-1.68 17.12-5.17l44.43-29.46 67.56.01 20.93 4.46c39.37 8.41 80.28 6.2 118.52-6.4l5.38-1.77h24.31l56.12 2.95v-31.991z" fill="#d78878"/><g id="XMLID_538_"><g><path d="m302.598 75.758c6.69 5.06 8.01 14.57 2.96 21.26l-22.6 29.88-38.94-28.97 22.82-30.18c5.05-6.69 14.57-8.01 21.25-2.96z" fill="#f9f7f8"/></g></g><path d="m504.116 330.688c0 5.155-4.179 9.335-9.335 9.335h-60.462c-7.951 0-14.396-7.612-14.396-17.002v-137.449c0-9.39 6.445-17.002 14.396-17.002h60.462c5.155 0 9.335 4.179 9.335 9.335z" fill="#ade194"/></g><path d="m169.446 192.306v-83.229h-11.008c-6.65 0-13.08 2.35-18.15 6.65l-79.66 67.41c-11.6 9.81-18.28 24.23-18.28 39.43v97.55c0 6.73 2.73 12.83 7.14 17.24s10.5 7.14 17.23 7.14c9.9 0 18.82-5.99 22.56-15.15l1.33-3.25h.02c-.32-8.49 2.83-17.02 9.26-23.35l1.98-19.16 5.85-56.8z" fill="#eb9c8d"/><path d="m76.177 337.358c-4.41-4.41-7.14-10.51-7.14-17.24v-97.55c0-15.2 6.68-29.62 18.28-39.43l82.129-74.06h-11.008c-6.65 0-13.08 2.35-18.15 6.65l-79.66 67.41c-11.6 9.81-18.28 24.23-18.28 39.43v97.55c0 6.73 2.73 12.83 7.14 17.24s10.5 7.14 17.23 7.14c4.848 0 9.457-1.444 13.342-3.986-1.4-.92-2.703-1.974-3.883-3.154z" fill="#d78878"/></g><g><path d="m331.38 322.91c-19.478 1.09-39.031-.424-58.108-4.495l-20.928-4.466c-.515-.109-1.039-.165-1.565-.165l-67.557-.002c-1.474 0-2.916.435-4.145 1.249l-44.437 29.459c-10.652 7.062-24.789 4.431-32.187-5.992-6.724-9.472-5.592-22.257 2.693-30.399l45.022-44.252 63.154-35.713c.445-.252.864-.548 1.249-.885l5.133-4.493c.385-.337.734-.713 1.042-1.121l53.596-70.898 22.549 12.472c1.15.637 2.396.938 3.623.938 2.641 0 5.201-1.396 6.569-3.871 2.005-3.624.692-8.188-2.933-10.192l-20.67-11.434 28.056-37.113c3.652-4.831 5.205-10.796 4.371-16.794-.833-5.999-3.953-11.313-8.784-14.966l-14.509-10.969c-4.831-3.652-10.791-5.204-16.795-4.371-5.998.834-11.313 3.954-14.965 8.785l-33.536 44.363-6.777-3.748c-2.676-1.48-5.705-2.263-8.763-2.263h-53.344c-8.408 0-16.573 2.991-22.99 8.423l-43.893 37.145c-3.162 2.676-3.556 7.407-.881 10.569 1.484 1.753 3.6 2.655 5.729 2.655 1.711 0 3.433-.583 4.841-1.775l43.893-37.145c3.713-3.142 8.437-4.872 13.301-4.872h53.344c.524 0 1.044.134 1.503.389l4.899 2.709-48.182 63.736-65.935 36.828c-2.134 1.191-3.553 3.348-3.803 5.778l-7.573 73.451c-6.333 7.189-9.598 16.19-9.626 25.271l-.723 1.769c-2.605 6.372-8.736 10.489-15.62 10.489-9.305 0-16.875-7.57-16.875-16.875v-97.559c0-13.012 5.696-25.295 15.629-33.7l11.31-9.57c3.162-2.676 3.557-7.408.881-10.57-2.675-3.16-7.406-3.555-10.57-.881l-11.31 9.571c-13.308 11.262-20.939 27.719-20.939 45.15v97.559c0 10.346 4.958 19.553 12.619 25.38l-33.949 44.908c-1.504 1.989-2.579 4.328-3.111 6.765l-10.158 46.57c-.863 3.959.588 7.964 3.788 10.45 1.879 1.46 4.116 2.206 6.377 2.206.226 0 263.985-.007 263.985-.007 4.143 0 7.5-3.357 7.5-7.5s-3.357-7.5-7.5-7.5h-231.597l15.418-7.729c2.368-1.188 4.465-2.933 6.062-5.047l49.819-65.9c2.463.491 4.971.755 7.493.755 7.325 0 14.741-2.103 21.34-6.478l42.553-28.21 64.506.002 20.153 4.301c20.38 4.349 41.263 5.965 62.077 4.802 4.135-.231 7.301-3.771 7.069-7.907-.231-4.136-3.776-7.294-7.908-7.07zm-122.134-110.934-3.976 3.48-63.346 35.82c-.571.323-1.098.72-1.566 1.18l-14.607 14.357 96.37-127.48 26.904 20.022zm36.271-103.591 26.903 20.022-14.35 18.983-26.904-20.022zm27.303-36.116c1.236-1.636 3.035-2.691 5.065-2.974.358-.05.717-.074 1.072-.074 1.659 0 3.265.535 4.611 1.553l14.509 10.969c3.375 2.552 4.046 7.373 1.494 10.749l-18.105 23.95-26.903-20.022zm-125.302 140.878-35.724 47.256 2.987-28.971zm-124.23 195.34 18.412 16.676-24.756 12.411zm31.283 8.096-24.954-22.602 32.045-42.39c1.648.264 3.335.405 5.056.405 8.096 0 15.625-3.031 21.349-8.216.655 1.157 1.367 2.294 2.153 3.4 2.716 3.826 5.992 7 9.628 9.509z"/><path d="m503.116 332.524h-68.798c-3.737 0-6.896-4.352-6.896-9.503v-137.45c0-5.15 3.158-9.502 6.896-9.502h68.798c4.143 0 7.5-3.357 7.5-7.5s-3.357-7.5-7.5-7.5h-68.798c-9.719 0-17.975 7.125-20.827 16.951h-58.83l-22.388-12.383c-3.624-2.003-8.188-.689-10.193 2.934-2.004 3.625-.691 8.188 2.934 10.193l24.082 13.319c1.111.614 2.36.937 3.63.937h59.697v117.055h-16.817c-.797 0-1.59.127-2.347.377l-5.38 1.772c-8.369 2.757-17.031 5.036-25.744 6.774-4.062.811-6.698 4.761-5.888 8.823.712 3.566 3.845 6.033 7.348 6.033.486 0 .98-.047 1.476-.146 9.306-1.857 18.559-4.293 27.502-7.239l4.237-1.396h15.696c.937 12.552 10.358 22.448 21.813 22.448h68.798c4.143 0 7.5-3.357 7.5-7.5s-3.358-7.497-7.501-7.497z"/></g></g></svg>